<svg xmlns="http://www.w3.org/2000/svg" viewBox="0 0 1118.00 390.00">
  <style>
    .key-bg { fill: #f5f5f5; stroke: #d4d4d4; stroke-width: 1; }
    .key-index { fill: #171717; font-family: ui-monospace, SFMono-Regular, "SF Mono", Menlo, Consolas, "Liberation Mono", monospace; font-weight: 700; text-anchor: middle; dominant-baseline: central; }
    .key-part { font-family: system-ui, -apple-system, BlinkMacSystemFont, "Segoe UI", Roboto, sans-serif; text-anchor: middle; dominant-baseline: central; }
    @media (prefers-color-scheme: dark) {
      .key-bg { fill: #2a2a2a; stroke: #404040; }
      .key-index { fill: #e5e5e5; }
    }
    .key-bg.part-0 { stroke: #f59e0b; }
    .key-part.part-0 { fill: #f59e0b; }
    .key-bg.part-1 { stroke: #14b8a6; }
    .key-part.part-1 { fill: #14b8a6; }
  </style>
  <g>
    <path class="key-bg part-0" d="M 26.00,50.00 L 84.00,50.00 Q 88.00,50.00 88.00,54.00 L 88.00,112.00 Q 88.00,116.00 84.00,116.00 L 26.00,116.00 Q 22.00,116.00 22.00,112.00 L 22.00,54.00 Q 22.00,50.00 26.00,50.00 Z" />
    <path class="key-bg part-0" d="M 96.00,50.00 L 154.00,50.00 Q 158.00,50.00 158.00,54.00 L 158.00,112.00 Q 158.00,116.00 154.00,116.00 L 96.00,116.00 Q 92.00,116.00 92.00,112.00 L 92.00,54.00 Q 92.00,50.00 96.00,50.00 Z" />
    <path class="key-bg part-0" d="M 173.00,29.00 L 231.00,29.00 Q 235.00,29.00 235.00,33.00 L 235.00,91.00 Q 235.00,95.00 231.00,95.00 L 173.00,95.00 Q 169.00,95.00 169.00,91.00 L 169.00,33.00 Q 169.00,29.00 173.00,29.00 Z" />
    <path class="key-bg part-0" d="M 250.00,22.00 L 308.00,22.00 Q 312.00,22.00 312.00,26.00 L 312.00,84.00 Q 312.00,88.00 308.00,88.00 L 250.00,88.00 Q 246.00,88.00 246.00,84.00 L 246.00,26.00 Q 246.00,22.00 250.00,22.00 Z" />
    <path class="key-bg part-0" d="M 327.00,29.00 L 385.00,29.00 Q 389.00,29.00 389.00,33.00 L 389.00,91.00 Q 389.00,95.00 385.00,95.00 L 327.00,95.00 Q 323.00,95.00 323.00,91.00 L 323.00,33.00 Q 323.00,29.00 327.00,29.00 Z" />
    <path class="key-bg part-0" d="M 397.00,36.00 L 455.00,36.00 Q 459.00,36.00 459.00,40.00 L 459.00,98.00 Q 459.00,102.00 455.00,102.00 L 397.00,102.00 Q 393.00,102.00 393.00,98.00 L 393.00,40.00 Q 393.00,36.00 397.00,36.00 Z" />
    <path class="key-bg part-1" d="M 663.00,36.00 L 721.00,36.00 Q 725.00,36.00 725.00,40.00 L 725.00,98.00 Q 725.00,102.00 721.00,102.00 L 663.00,102.00 Q 659.00,102.00 659.00,98.00 L 659.00,40.00 Q 659.00,36.00 663.00,36.00 Z" />
    <path class="key-bg part-1" d="M 733.00,29.00 L 791.00,29.00 Q 795.00,29.00 795.00,33.00 L 795.00,91.00 Q 795.00,95.00 791.00,95.00 L 733.00,95.00 Q 729.00,95.00 729.00,91.00 L 729.00,33.00 Q 729.00,29.00 733.00,29.00 Z" />
    <path class="key-bg part-1" d="M 810.00,22.00 L 868.00,22.00 Q 872.00,22.00 872.00,26.00 L 872.00,84.00 Q 872.00,88.00 868.00,88.00 L 810.00,88.00 Q 806.00,88.00 806.00,84.00 L 806.00,26.00 Q 806.00,22.00 810.00,22.00 Z" />
    <path class="key-bg part-1" d="M 887.00,29.00 L 945.00,29.00 Q 949.00,29.00 949.00,33.00 L 949.00,91.00 Q 949.00,95.00 945.00,95.00 L 887.00,95.00 Q 883.00,95.00 883.00,91.00 L 883.00,33.00 Q 883.00,29.00 887.00,29.00 Z" />
    <path class="key-bg part-1" d="M 964.00,50.00 L 1022.00,50.00 Q 1026.00,50.00 1026.00,54.00 L 1026.00,112.00 Q 1026.00,116.00 1022.00,116.00 L 964.00,116.00 Q 960.00,116.00 960.00,112.00 L 960.00,54.00 Q 960.00,50.00 964.00,50.00 Z" />
    <path class="key-bg part-1" d="M 1034.00,50.00 L 1092.00,50.00 Q 1096.00,50.00 1096.00,54.00 L 1096.00,112.00 Q 1096.00,116.00 1092.00,116.00 L 1034.00,116.00 Q 1030.00,116.00 1030.00,112.00 L 1030.00,54.00 Q 1030.00,50.00 1034.00,50.00 Z" />
    <path class="key-bg part-0" d="M 26.00,120.00 L 84.00,120.00 Q 88.00,120.00 88.00,124.00 L 88.00,217.00 Q 88.00,221.00 84.00,221.00 L 26.00,221.00 Q 22.00,221.00 22.00,217.00 L 22.00,124.00 Q 22.00,120.00 26.00,120.00 Z" />
    <path class="key-bg part-0" d="M 96.00,120.00 L 154.00,120.00 Q 158.00,120.00 158.00,124.00 L 158.00,182.00 Q 158.00,186.00 154.00,186.00 L 96.00,186.00 Q 92.00,186.00 92.00,182.00 L 92.00,124.00 Q 92.00,120.00 96.00,120.00 Z" />
    <path class="key-bg part-0" d="M 173.00,99.00 L 231.00,99.00 Q 235.00,99.00 235.00,103.00 L 235.00,161.00 Q 235.00,165.00 231.00,165.00 L 173.00,165.00 Q 169.00,165.00 169.00,161.00 L 169.00,103.00 Q 169.00,99.00 173.00,99.00 Z" />
    <path class="key-bg part-0" d="M 250.00,92.00 L 308.00,92.00 Q 312.00,92.00 312.00,96.00 L 312.00,154.00 Q 312.00,158.00 308.00,158.00 L 250.00,158.00 Q 246.00,158.00 246.00,154.00 L 246.00,96.00 Q 246.00,92.00 250.00,92.00 Z" />
    <path class="key-bg part-0" d="M 327.00,99.00 L 385.00,99.00 Q 389.00,99.00 389.00,103.00 L 389.00,161.00 Q 389.00,165.00 385.00,165.00 L 327.00,165.00 Q 323.00,165.00 323.00,161.00 L 323.00,103.00 Q 323.00,99.00 327.00,99.00 Z" />
    <path class="key-bg part-0" d="M 397.00,106.00 L 455.00,106.00 Q 459.00,106.00 459.00,110.00 L 459.00,168.00 Q 459.00,172.00 455.00,172.00 L 397.00,172.00 Q 393.00,172.00 393.00,168.00 L 393.00,110.00 Q 393.00,106.00 397.00,106.00 Z" />
    <path class="key-bg part-1" d="M 579.00,106.00 L 637.00,106.00 Q 641.00,106.00 641.00,110.00 L 641.00,168.00 Q 641.00,172.00 637.00,172.00 L 579.00,172.00 Q 575.00,172.00 575.00,168.00 L 575.00,110.00 Q 575.00,106.00 579.00,106.00 Z" />
    <path class="key-bg part-1" d="M 663.00,106.00 L 721.00,106.00 Q 725.00,106.00 725.00,110.00 L 725.00,168.00 Q 725.00,172.00 721.00,172.00 L 663.00,172.00 Q 659.00,172.00 659.00,168.00 L 659.00,110.00 Q 659.00,106.00 663.00,106.00 Z" />
    <path class="key-bg part-1" d="M 733.00,99.00 L 791.00,99.00 Q 795.00,99.00 795.00,103.00 L 795.00,161.00 Q 795.00,165.00 791.00,165.00 L 733.00,165.00 Q 729.00,165.00 729.00,161.00 L 729.00,103.00 Q 729.00,99.00 733.00,99.00 Z" />
    <path class="key-bg part-1" d="M 810.00,92.00 L 868.00,92.00 Q 872.00,92.00 872.00,96.00 L 872.00,154.00 Q 872.00,158.00 868.00,158.00 L 810.00,158.00 Q 806.00,158.00 806.00,154.00 L 806.00,96.00 Q 806.00,92.00 810.00,92.00 Z" />
    <path class="key-bg part-1" d="M 887.00,99.00 L 945.00,99.00 Q 949.00,99.00 949.00,103.00 L 949.00,161.00 Q 949.00,165.00 945.00,165.00 L 887.00,165.00 Q 883.00,165.00 883.00,161.00 L 883.00,103.00 Q 883.00,99.00 887.00,99.00 Z" />
    <path class="key-bg part-1" d="M 964.00,120.00 L 1022.00,120.00 Q 1026.00,120.00 1026.00,124.00 L 1026.00,182.00 Q 1026.00,186.00 1022.00,186.00 L 964.00,186.00 Q 960.00,186.00 960.00,182.00 L 960.00,124.00 Q 960.00,120.00 964.00,120.00 Z" />
    <path class="key-bg part-1" d="M 1034.00,120.00 L 1092.00,120.00 Q 1096.00,120.00 1096.00,124.00 L 1096.00,182.00 Q 1096.00,186.00 1092.00,186.00 L 1034.00,186.00 Q 1030.00,186.00 1030.00,182.00 L 1030.00,124.00 Q 1030.00,120.00 1034.00,120.00 Z" />
    <path class="key-bg part-0" d="M 96.00,190.00 L 154.00,190.00 Q 158.00,190.00 158.00,194.00 L 158.00,252.00 Q 158.00,256.00 154.00,256.00 L 96.00,256.00 Q 92.00,256.00 92.00,252.00 L 92.00,194.00 Q 92.00,190.00 96.00,190.00 Z" />
    <path class="key-bg part-0" d="M 173.00,169.00 L 231.00,169.00 Q 235.00,169.00 235.00,173.00 L 235.00,231.00 Q 235.00,235.00 231.00,235.00 L 173.00,235.00 Q 169.00,235.00 169.00,231.00 L 169.00,173.00 Q 169.00,169.00 173.00,169.00 Z" />
    <path class="key-bg part-0" d="M 250.00,162.00 L 308.00,162.00 Q 312.00,162.00 312.00,166.00 L 312.00,224.00 Q 312.00,228.00 308.00,228.00 L 250.00,228.00 Q 246.00,228.00 246.00,224.00 L 246.00,166.00 Q 246.00,162.00 250.00,162.00 Z" />
    <path class="key-bg part-0" d="M 327.00,169.00 L 385.00,169.00 Q 389.00,169.00 389.00,173.00 L 389.00,231.00 Q 389.00,235.00 385.00,235.00 L 327.00,235.00 Q 323.00,235.00 323.00,231.00 L 323.00,173.00 Q 323.00,169.00 327.00,169.00 Z" />
    <path class="key-bg part-0" d="M 397.00,176.00 L 455.00,176.00 Q 459.00,176.00 459.00,180.00 L 459.00,238.00 Q 459.00,242.00 455.00,242.00 L 397.00,242.00 Q 393.00,242.00 393.00,238.00 L 393.00,180.00 Q 393.00,176.00 397.00,176.00 Z" />
    <path class="key-bg part-1" d="M 663.00,176.00 L 721.00,176.00 Q 725.00,176.00 725.00,180.00 L 725.00,238.00 Q 725.00,242.00 721.00,242.00 L 663.00,242.00 Q 659.00,242.00 659.00,238.00 L 659.00,180.00 Q 659.00,176.00 663.00,176.00 Z" />
    <path class="key-bg part-1" d="M 733.00,169.00 L 791.00,169.00 Q 795.00,169.00 795.00,173.00 L 795.00,231.00 Q 795.00,235.00 791.00,235.00 L 733.00,235.00 Q 729.00,235.00 729.00,231.00 L 729.00,173.00 Q 729.00,169.00 733.00,169.00 Z" />
    <path class="key-bg part-1" d="M 810.00,162.00 L 868.00,162.00 Q 872.00,162.00 872.00,166.00 L 872.00,224.00 Q 872.00,228.00 868.00,228.00 L 810.00,228.00 Q 806.00,228.00 806.00,224.00 L 806.00,166.00 Q 806.00,162.00 810.00,162.00 Z" />
    <path class="key-bg part-1" d="M 887.00,169.00 L 945.00,169.00 Q 949.00,169.00 949.00,173.00 L 949.00,231.00 Q 949.00,235.00 945.00,235.00 L 887.00,235.00 Q 883.00,235.00 883.00,231.00 L 883.00,173.00 Q 883.00,169.00 887.00,169.00 Z" />
    <path class="key-bg part-1" d="M 964.00,190.00 L 1022.00,190.00 Q 1026.00,190.00 1026.00,194.00 L 1026.00,252.00 Q 1026.00,256.00 1022.00,256.00 L 964.00,256.00 Q 960.00,256.00 960.00,252.00 L 960.00,194.00 Q 960.00,190.00 964.00,190.00 Z" />
    <path class="key-bg part-1" d="M 1034.00,190.00 L 1092.00,190.00 Q 1096.00,190.00 1096.00,194.00 L 1096.00,252.00 Q 1096.00,256.00 1092.00,256.00 L 1034.00,256.00 Q 1030.00,256.00 1030.00,252.00 L 1030.00,194.00 Q 1030.00,190.00 1034.00,190.00 Z" />
    <path class="key-bg part-0" d="M 26.00,225.00 L 84.00,225.00 Q 88.00,225.00 88.00,229.00 L 88.00,322.00 Q 88.00,326.00 84.00,326.00 L 26.00,326.00 Q 22.00,326.00 22.00,322.00 L 22.00,229.00 Q 22.00,225.00 26.00,225.00 Z" />
    <path class="key-bg part-0" d="M 96.00,260.00 L 154.00,260.00 Q 158.00,260.00 158.00,264.00 L 158.00,322.00 Q 158.00,326.00 154.00,326.00 L 96.00,326.00 Q 92.00,326.00 92.00,322.00 L 92.00,264.00 Q 92.00,260.00 96.00,260.00 Z" />
    <path class="key-bg part-0" d="M 166.00,260.00 L 224.00,260.00 Q 228.00,260.00 228.00,264.00 L 228.00,322.00 Q 228.00,326.00 224.00,326.00 L 166.00,326.00 Q 162.00,326.00 162.00,322.00 L 162.00,264.00 Q 162.00,260.00 166.00,260.00 Z" />
    <path class="key-bg part-1" d="M 894.00,260.00 L 952.00,260.00 Q 956.00,260.00 956.00,264.00 L 956.00,322.00 Q 956.00,326.00 952.00,326.00 L 894.00,326.00 Q 890.00,326.00 890.00,322.00 L 890.00,264.00 Q 890.00,260.00 894.00,260.00 Z" />
    <path class="key-bg part-1" d="M 964.00,260.00 L 1022.00,260.00 Q 1026.00,260.00 1026.00,264.00 L 1026.00,322.00 Q 1026.00,326.00 1022.00,326.00 L 964.00,326.00 Q 960.00,326.00 960.00,322.00 L 960.00,264.00 Q 960.00,260.00 964.00,260.00 Z" />
    <path class="key-bg part-1" d="M 1034.00,260.00 L 1092.00,260.00 Q 1096.00,260.00 1096.00,264.00 L 1096.00,322.00 Q 1096.00,326.00 1092.00,326.00 L 1034.00,326.00 Q 1030.00,326.00 1030.00,322.00 L 1030.00,264.00 Q 1030.00,260.00 1034.00,260.00 Z" />
    <path class="key-bg part-0" d="M 341.00,302.00 L 399.00,302.00 Q 403.00,302.00 403.00,306.00 L 403.00,364.00 Q 403.00,368.00 399.00,368.00 L 341.00,368.00 Q 337.00,368.00 337.00,364.00 L 337.00,306.00 Q 337.00,302.00 341.00,302.00 Z" />
    <path class="key-bg part-0" d="M 411.00,302.00 L 469.00,302.00 Q 473.00,302.00 473.00,306.00 L 473.00,364.00 Q 473.00,368.00 469.00,368.00 L 411.00,368.00 Q 407.00,368.00 407.00,364.00 L 407.00,306.00 Q 407.00,302.00 411.00,302.00 Z" />
    <path class="key-bg part-0" d="M 481.00,302.00 L 539.00,302.00 Q 543.00,302.00 543.00,306.00 L 543.00,364.00 Q 543.00,368.00 539.00,368.00 L 481.00,368.00 Q 477.00,368.00 477.00,364.00 L 477.00,306.00 Q 477.00,302.00 481.00,302.00 Z" />
    <path class="key-bg part-1" d="M 621.00,302.00 L 679.00,302.00 Q 683.00,302.00 683.00,306.00 L 683.00,364.00 Q 683.00,368.00 679.00,368.00 L 621.00,368.00 Q 617.00,368.00 617.00,364.00 L 617.00,306.00 Q 617.00,302.00 621.00,302.00 Z" />
    <path class="key-bg part-1" d="M 691.00,302.00 L 749.00,302.00 Q 753.00,302.00 753.00,306.00 L 753.00,364.00 Q 753.00,368.00 749.00,368.00 L 691.00,368.00 Q 687.00,368.00 687.00,364.00 L 687.00,306.00 Q 687.00,302.00 691.00,302.00 Z" />
    <path class="key-bg part-1" d="M 761.00,302.00 L 819.00,302.00 Q 823.00,302.00 823.00,306.00 L 823.00,364.00 Q 823.00,368.00 819.00,368.00 L 761.00,368.00 Q 757.00,368.00 757.00,364.00 L 757.00,306.00 Q 757.00,302.00 761.00,302.00 Z" />
  </g>
  <g>
    <text class="key-index" x="55.00" y="71.36" font-size="26">0</text>
    <text class="key-part part-0" x="55.00" y="98.64" font-size="18">left</text>
    <text class="key-index" x="125.00" y="71.36" font-size="26">1</text>
    <text class="key-part part-0" x="125.00" y="98.64" font-size="18">left</text>
    <text class="key-index" x="202.00" y="50.36" font-size="26">2</text>
    <text class="key-part part-0" x="202.00" y="77.64" font-size="18">left</text>
    <text class="key-index" x="279.00" y="43.36" font-size="26">3</text>
    <text class="key-part part-0" x="279.00" y="70.64" font-size="18">left</text>
    <text class="key-index" x="356.00" y="50.36" font-size="26">4</text>
    <text class="key-part part-0" x="356.00" y="77.64" font-size="18">left</text>
    <text class="key-index" x="426.00" y="57.36" font-size="26">5</text>
    <text class="key-part part-0" x="426.00" y="84.64" font-size="18">left</text>
    <text class="key-index" x="692.00" y="57.36" font-size="26">6</text>
    <text class="key-part part-1" x="692.00" y="84.64" font-size="18">right</text>
    <text class="key-index" x="762.00" y="50.36" font-size="26">7</text>
    <text class="key-part part-1" x="762.00" y="77.64" font-size="18">right</text>
    <text class="key-index" x="839.00" y="43.36" font-size="26">8</text>
    <text class="key-part part-1" x="839.00" y="70.64" font-size="18">right</text>
    <text class="key-index" x="916.00" y="50.36" font-size="26">9</text>
    <text class="key-part part-1" x="916.00" y="77.64" font-size="18">right</text>
    <text class="key-index" x="993.00" y="71.36" font-size="26">10</text>
    <text class="key-part part-1" x="993.00" y="98.64" font-size="18">right</text>
    <text class="key-index" x="1063.00" y="71.36" font-size="26">11</text>
    <text class="key-part part-1" x="1063.00" y="98.64" font-size="18">right</text>
    <text class="key-index" x="55.00" y="158.86" font-size="26">12</text>
    <text class="key-part part-0" x="55.00" y="186.14" font-size="18">left</text>
    <text class="key-index" x="125.00" y="141.36" font-size="26">13</text>
    <text class="key-part part-0" x="125.00" y="168.64" font-size="18">left</text>
    <text class="key-index" x="202.00" y="120.36" font-size="26">14</text>
    <text class="key-part part-0" x="202.00" y="147.64" font-size="18">left</text>
    <text class="key-index" x="279.00" y="113.36" font-size="26">15</text>
    <text class="key-part part-0" x="279.00" y="140.64" font-size="18">left</text>
    <text class="key-index" x="356.00" y="120.36" font-size="26">16</text>
    <text class="key-part part-0" x="356.00" y="147.64" font-size="18">left</text>
    <text class="key-index" x="426.00" y="127.36" font-size="26">17</text>
    <text class="key-part part-0" x="426.00" y="154.64" font-size="18">left</text>
    <text class="key-index" x="608.00" y="127.36" font-size="26">18</text>
    <text class="key-part part-1" x="608.00" y="154.64" font-size="18">right</text>
    <text class="key-index" x="692.00" y="127.36" font-size="26">19</text>
    <text class="key-part part-1" x="692.00" y="154.64" font-size="18">right</text>
    <text class="key-index" x="762.00" y="120.36" font-size="26">20</text>
    <text class="key-part part-1" x="762.00" y="147.64" font-size="18">right</text>
    <text class="key-index" x="839.00" y="113.36" font-size="26">21</text>
    <text class="key-part part-1" x="839.00" y="140.64" font-size="18">right</text>
    <text class="key-index" x="916.00" y="120.36" font-size="26">22</text>
    <text class="key-part part-1" x="916.00" y="147.64" font-size="18">right</text>
    <text class="key-index" x="993.00" y="141.36" font-size="26">23</text>
    <text class="key-part part-1" x="993.00" y="168.64" font-size="18">right</text>
    <text class="key-index" x="1063.00" y="141.36" font-size="26">24</text>
    <text class="key-part part-1" x="1063.00" y="168.64" font-size="18">right</text>
    <text class="key-index" x="125.00" y="211.36" font-size="26">25</text>
    <text class="key-part part-0" x="125.00" y="238.64" font-size="18">left</text>
    <text class="key-index" x="202.00" y="190.36" font-size="26">26</text>
    <text class="key-part part-0" x="202.00" y="217.64" font-size="18">left</text>
    <text class="key-index" x="279.00" y="183.36" font-size="26">27</text>
    <text class="key-part part-0" x="279.00" y="210.64" font-size="18">left</text>
    <text class="key-index" x="356.00" y="190.36" font-size="26">28</text>
    <text class="key-part part-0" x="356.00" y="217.64" font-size="18">left</text>
    <text class="key-index" x="426.00" y="197.36" font-size="26">29</text>
    <text class="key-part part-0" x="426.00" y="224.64" font-size="18">left</text>
    <text class="key-index" x="692.00" y="197.36" font-size="26">30</text>
    <text class="key-part part-1" x="692.00" y="224.64" font-size="18">right</text>
    <text class="key-index" x="762.00" y="190.36" font-size="26">31</text>
    <text class="key-part part-1" x="762.00" y="217.64" font-size="18">right</text>
    <text class="key-index" x="839.00" y="183.36" font-size="26">32</text>
    <text class="key-part part-1" x="839.00" y="210.64" font-size="18">right</text>
    <text class="key-index" x="916.00" y="190.36" font-size="26">33</text>
    <text class="key-part part-1" x="916.00" y="217.64" font-size="18">right</text>
    <text class="key-index" x="993.00" y="211.36" font-size="26">34</text>
    <text class="key-part part-1" x="993.00" y="238.64" font-size="18">right</text>
    <text class="key-index" x="1063.00" y="211.36" font-size="26">35</text>
    <text class="key-part part-1" x="1063.00" y="238.64" font-size="18">right</text>
    <text class="key-index" x="55.00" y="263.86" font-size="26">36</text>
    <text class="key-part part-0" x="55.00" y="291.14" font-size="18">left</text>
    <text class="key-index" x="125.00" y="281.36" font-size="26">37</text>
    <text class="key-part part-0" x="125.00" y="308.64" font-size="18">left</text>
    <text class="key-index" x="195.00" y="281.36" font-size="26">38</text>
    <text class="key-part part-0" x="195.00" y="308.64" font-size="18">left</text>
    <text class="key-index" x="923.00" y="281.36" font-size="26">39</text>
    <text class="key-part part-1" x="923.00" y="308.64" font-size="18">right</text>
    <text class="key-index" x="993.00" y="281.36" font-size="26">40</text>
    <text class="key-part part-1" x="993.00" y="308.64" font-size="18">right</text>
    <text class="key-index" x="1063.00" y="281.36" font-size="26">41</text>
    <text class="key-part part-1" x="1063.00" y="308.64" font-size="18">right</text>
    <text class="key-index" x="370.00" y="323.36" font-size="26">42</text>
    <text class="key-part part-0" x="370.00" y="350.64" font-size="18">left</text>
    <text class="key-index" x="440.00" y="323.36" font-size="26">43</text>
    <text class="key-part part-0" x="440.00" y="350.64" font-size="18">left</text>
    <text class="key-index" x="510.00" y="323.36" font-size="26">44</text>
    <text class="key-part part-0" x="510.00" y="350.64" font-size="18">left</text>
    <text class="key-index" x="650.00" y="323.36" font-size="26">45</text>
    <text class="key-part part-1" x="650.00" y="350.64" font-size="18">right</text>
    <text class="key-index" x="720.00" y="323.36" font-size="26">46</text>
    <text class="key-part part-1" x="720.00" y="350.64" font-size="18">right</text>
    <text class="key-index" x="790.00" y="323.36" font-size="26">47</text>
    <text class="key-part part-1" x="790.00" y="350.64" font-size="18">right</text>
  </g>
</svg>
