0
SECTION
2
HEADER
9
$INSUNITS
70
4
0
ENDSEC
0
SECTION
2
TABLES
0
TABLE
2
LTYPE
0
LTYPE
72
65
70
64
2
CONTINUOUS
3
______
73
0
40
0
0
ENDTAB
0
TABLE
2
LAYER
0
ENDTAB
0
ENDSEC
0
SECTION
2
ENTITIES
0
LINE
8
0
10
59.6
20
-1.5
11
73.6
21
-1.5
0
LINE
8
0
10
59.6
20
-15.5
11
73.6
21
-15.5
0
LINE
8
0
10
59.6
20
-1.5
11
59.6
21
-15.5
0
LINE
8
0
10
73.6
20
-1.5
11
73.6
21
-15.5
0
LINE
8
0
10
203.6
20
-1.5
11
217.6
21
-1.5
0
LINE
8
0
10
203.6
20
-15.5
11
217.6
21
-15.5
0
LINE
8
0
10
203.6
20
-1.5
11
203.6
21
-15.5
0
LINE
8
0
10
217.6
20
-1.5
11
217.6
21
-15.5
0
LINE
8
0
10
39.8
20
-3.2
11
53.8
21
-3.2
0
LINE
8
0
10
39.8
20
-17.2
11
53.8
21
-17.2
0
LINE
8
0
10
39.8
20
-3.2
11
39.8
21
-17.2
0
LINE
8
0
10
53.8
20
-3.2
11
53.8
21
-17.2
0
LINE
8
0
10
79.4
20
-3.2
11
93.4
21
-3.2
0
LINE
8
0
10
79.4
20
-17.2
11
93.4
21
-17.2
0
LINE
8
0
10
79.4
20
-3.2
11
79.4
21
-17.2
0
LINE
8
0
10
93.4
20
-3.2
11
93.4
21
-17.2
0
LINE
8
0
10
183.8
20
-3.2
11
197.8
21
-3.2
0
LINE
8
0
10
183.8
20
-17.2
11
197.8
21
-17.2
0
LINE
8
0
10
183.8
20
-3.2
11
183.8
21
-17.2
0
LINE
8
0
10
197.8
20
-3.2
11
197.8
21
-17.2
0
LINE
8
0
10
223.4
20
-3.2
11
237.4
21
-3.2
0
LINE
8
0
10
223.4
20
-17.2
11
237.4
21
-17.2
0
LINE
8
0
10
223.4
20
-3.2
11
223.4
21
-17.2
0
LINE
8
0
10
237.4
20
-3.2
11
237.4
21
-17.2
0
LINE
8
0
10
97.4
20
-4.9
11
111.4
21
-4.9
0
LINE
8
0
10
97.4
20
-18.9
11
111.4
21
-18.9
0
LINE
8
0
10
97.4
20
-4.9
11
97.4
21
-18.9
0
LINE
8
0
10
111.4
20
-4.9
11
111.4
21
-18.9
0
LINE
8
0
10
165.8
20
-4.9
11
179.8
21
-4.9
0
LINE
8
0
10
165.8
20
-18.9
11
179.8
21
-18.9
0
LINE
8
0
10
165.8
20
-4.9
11
165.8
21
-18.9
0
LINE
8
0
10
179.8
20
-4.9
11
179.8
21
-18.9
0
LINE
8
0
10
2
20
-8.3
11
16
21
-8.3
0
LINE
8
0
10
2
20
-22.3
11
16
21
-22.3
0
LINE
8
0
10
2
20
-8.3
11
2
21
-22.3
0
LINE
8
0
10
16
20
-8.3
11
16
21
-22.3
0
LINE
8
0
10
20
20
-8.3
11
34
21
-8.3
0
LINE
8
0
10
20
20
-22.3
11
34
21
-22.3
0
LINE
8
0
10
20
20
-8.3
11
20
21
-22.3
0
LINE
8
0
10
34
20
-8.3
11
34
21
-22.3
0
LINE
8
0
10
243.2
20
-8.3
11
257.2
21
-8.3
0
LINE
8
0
10
243.2
20
-22.3
11
257.2
21
-22.3
0
LINE
8
0
10
243.2
20
-8.3
11
243.2
21
-22.3
0
LINE
8
0
10
257.2
20
-8.3
11
257.2
21
-22.3
0
LINE
8
0
10
261.2
20
-8.3
11
275.2
21
-8.3
0
LINE
8
0
10
261.2
20
-22.3
11
275.2
21
-22.3
0
LINE
8
0
10
261.2
20
-8.3
11
261.2
21
-22.3
0
LINE
8
0
10
275.2
20
-8.3
11
275.2
21
-22.3
0
LINE
8
0
10
59.6
20
-18.5
11
73.6
21
-18.5
0
LINE
8
0
10
59.6
20
-32.5
11
73.6
21
-32.5
0
LINE
8
0
10
59.6
20
-18.5
11
59.6
21
-32.5
0
LINE
8
0
10
73.6
20
-18.5
11
73.6
21
-32.5
0
LINE
8
0
10
203.6
20
-18.5
11
217.6
21
-18.5
0
LINE
8
0
10
203.6
20
-32.5
11
217.6
21
-32.5
0
LINE
8
0
10
203.6
20
-18.5
11
203.6
21
-32.5
0
LINE
8
0
10
217.6
20
-18.5
11
217.6
21
-32.5
0
LINE
8
0
10
39.8
20
-20.2
11
53.8
21
-20.2
0
LINE
8
0
10
39.8
20
-34.2
11
53.8
21
-34.2
0
LINE
8
0
10
39.8
20
-20.2
11
39.8
21
-34.2
0
LINE
8
0
10
53.8
20
-20.2
11
53.8
21
-34.2
0
LINE
8
0
10
79.4
20
-20.2
11
93.4
21
-20.2
0
LINE
8
0
10
79.4
20
-34.2
11
93.4
21
-34.2
0
LINE
8
0
10
79.4
20
-20.2
11
79.4
21
-34.2
0
LINE
8
0
10
93.4
20
-20.2
11
93.4
21
-34.2
0
LINE
8
0
10
183.8
20
-20.2
11
197.8
21
-20.2
0
LINE
8
0
10
183.8
20
-34.2
11
197.8
21
-34.2
0
LINE
8
0
10
183.8
20
-20.2
11
183.8
21
-34.2
0
LINE
8
0
10
197.8
20
-20.2
11
197.8
21
-34.2
0
LINE
8
0
10
223.4
20
-20.2
11
237.4
21
-20.2
0
LINE
8
0
10
223.4
20
-34.2
11
237.4
21
-34.2
0
LINE
8
0
10
223.4
20
-20.2
11
223.4
21
-34.2
0
LINE
8
0
10
237.4
20
-20.2
11
237.4
21
-34.2
0
LINE
8
0
10
97.4
20
-21.9
11
111.4
21
-21.9
0
LINE
8
0
10
97.4
20
-35.9
11
111.4
21
-35.9
0
LINE
8
0
10
97.4
20
-21.9
11
97.4
21
-35.9
0
LINE
8
0
10
111.4
20
-21.9
11
111.4
21
-35.9
0
LINE
8
0
10
119
20
-21.9
11
133
21
-21.9
0
LINE
8
0
10
119
20
-35.9
11
133
21
-35.9
0
LINE
8
0
10
119
20
-21.9
11
119
21
-35.9
0
LINE
8
0
10
133
20
-21.9
11
133
21
-35.9
0
LINE
8
0
10
144.2
20
-21.9
11
158.2
21
-21.9
0
LINE
8
0
10
144.2
20
-35.9
11
158.2
21
-35.9
0
LINE
8
0
10
144.2
20
-21.9
11
144.2
21
-35.9
0
LINE
8
0
10
158.2
20
-21.9
11
158.2
21
-35.9
0
LINE
8
0
10
165.8
20
-21.9
11
179.8
21
-21.9
0
LINE
8
0
10
165.8
20
-35.9
11
179.8
21
-35.9
0
LINE
8
0
10
165.8
20
-21.9
11
165.8
21
-35.9
0
LINE
8
0
10
179.8
20
-21.9
11
179.8
21
-35.9
0
LINE
8
0
10
16
20
-29.55
11
16
21
-43.55
0
LINE
8
0
10
2
20
-29.55
11
2
21
-43.55
0
LINE
8
0
10
16
20
-29.55
11
2
21
-29.55
0
LINE
8
0
10
16
20
-43.55
11
2
21
-43.55
0
LINE
8
0
10
20
20
-25.3
11
34
21
-25.3
0
LINE
8
0
10
20
20
-39.3
11
34
21
-39.3
0
LINE
8
0
10
20
20
-25.3
11
20
21
-39.3
0
LINE
8
0
10
34
20
-25.3
11
34
21
-39.3
0
LINE
8
0
10
243.2
20
-25.3
11
257.2
21
-25.3
0
LINE
8
0
10
243.2
20
-39.3
11
257.2
21
-39.3
0
LINE
8
0
10
243.2
20
-25.3
11
243.2
21
-39.3
0
LINE
8
0
10
257.2
20
-25.3
11
257.2
21
-39.3
0
LINE
8
0
10
261.2
20
-25.3
11
275.2
21
-25.3
0
LINE
8
0
10
261.2
20
-39.3
11
275.2
21
-39.3
0
LINE
8
0
10
261.2
20
-25.3
11
261.2
21
-39.3
0
LINE
8
0
10
275.2
20
-25.3
11
275.2
21
-39.3
0
LINE
8
0
10
59.6
20
-35.5
11
73.6
21
-35.5
0
LINE
8
0
10
59.6
20
-49.5
11
73.6
21
-49.5
0
LINE
8
0
10
59.6
20
-35.5
11
59.6
21
-49.5
0
LINE
8
0
10
73.6
20
-35.5
11
73.6
21
-49.5
0
LINE
8
0
10
203.6
20
-35.5
11
217.6
21
-35.5
0
LINE
8
0
10
203.6
20
-49.5
11
217.6
21
-49.5
0
LINE
8
0
10
203.6
20
-35.5
11
203.6
21
-49.5
0
LINE
8
0
10
217.6
20
-35.5
11
217.6
21
-49.5
0
LINE
8
0
10
39.8
20
-37.2
11
53.8
21
-37.2
0
LINE
8
0
10
39.8
20
-51.2
11
53.8
21
-51.2
0
LINE
8
0
10
39.8
20
-37.2
11
39.8
21
-51.2
0
LINE
8
0
10
53.8
20
-37.2
11
53.8
21
-51.2
0
LINE
8
0
10
79.4
20
-37.2
11
93.4
21
-37.2
0
LINE
8
0
10
79.4
20
-51.2
11
93.4
21
-51.2
0
LINE
8
0
10
79.4
20
-37.2
11
79.4
21
-51.2
0
LINE
8
0
10
93.4
20
-37.2
11
93.4
21
-51.2
0
LINE
8
0
10
183.8
20
-37.2
11
197.8
21
-37.2
0
LINE
8
0
10
183.8
20
-51.2
11
197.8
21
-51.2
0
LINE
8
0
10
183.8
20
-37.2
11
183.8
21
-51.2
0
LINE
8
0
10
197.8
20
-37.2
11
197.8
21
-51.2
0
LINE
8
0
10
223.4
20
-37.2
11
237.4
21
-37.2
0
LINE
8
0
10
223.4
20
-51.2
11
237.4
21
-51.2
0
LINE
8
0
10
223.4
20
-37.2
11
223.4
21
-51.2
0
LINE
8
0
10
237.4
20
-37.2
11
237.4
21
-51.2
0
LINE
8
0
10
97.4
20
-38.9
11
111.4
21
-38.9
0
LINE
8
0
10
97.4
20
-52.9
11
111.4
21
-52.9
0
LINE
8
0
10
97.4
20
-38.9
11
97.4
21
-52.9
0
LINE
8
0
10
111.4
20
-38.9
11
111.4
21
-52.9
0
LINE
8
0
10
119
20
-38.9
11
133
21
-38.9
0
LINE
8
0
10
119
20
-52.9
11
133
21
-52.9
0
LINE
8
0
10
119
20
-38.9
11
119
21
-52.9
0
LINE
8
0
10
133
20
-38.9
11
133
21
-52.9
0
LINE
8
0
10
144.2
20
-38.9
11
158.2
21
-38.9
0
LINE
8
0
10
144.2
20
-52.9
11
158.2
21
-52.9
0
LINE
8
0
10
144.2
20
-38.9
11
144.2
21
-52.9
0
LINE
8
0
10
158.2
20
-38.9
11
158.2
21
-52.9
0
LINE
8
0
10
165.8
20
-38.9
11
179.8
21
-38.9
0
LINE
8
0
10
165.8
20
-52.9
11
179.8
21
-52.9
0
LINE
8
0
10
165.8
20
-38.9
11
165.8
21
-52.9
0
LINE
8
0
10
179.8
20
-38.9
11
179.8
21
-52.9
0
LINE
8
0
10
20
20
-42.3
11
34
21
-42.3
0
LINE
8
0
10
20
20
-56.3
11
34
21
-56.3
0
LINE
8
0
10
20
20
-42.3
11
20
21
-56.3
0
LINE
8
0
10
34
20
-42.3
11
34
21
-56.3
0
LINE
8
0
10
243.2
20
-42.3
11
257.2
21
-42.3
0
LINE
8
0
10
243.2
20
-56.3
11
257.2
21
-56.3
0
LINE
8
0
10
243.2
20
-42.3
11
243.2
21
-56.3
0
LINE
8
0
10
257.2
20
-42.3
11
257.2
21
-56.3
0
LINE
8
0
10
261.2
20
-42.3
11
275.2
21
-42.3
0
LINE
8
0
10
261.2
20
-56.3
11
275.2
21
-56.3
0
LINE
8
0
10
261.2
20
-42.3
11
261.2
21
-56.3
0
LINE
8
0
10
275.2
20
-42.3
11
275.2
21
-56.3
0
LINE
8
0
10
16
20
-55.05
11
16
21
-69.05
0
LINE
8
0
10
2
20
-55.05
11
2
21
-69.05
0
LINE
8
0
10
16
20
-55.05
11
2
21
-55.05
0
LINE
8
0
10
16
20
-69.05
11
2
21
-69.05
0
LINE
8
0
10
20
20
-59.3
11
34
21
-59.3
0
LINE
8
0
10
20
20
-73.3
11
34
21
-73.3
0
LINE
8
0
10
20
20
-59.3
11
20
21
-73.3
0
LINE
8
0
10
34
20
-59.3
11
34
21
-73.3
0
LINE
8
0
10
38
20
-59.3
11
52
21
-59.3
0
LINE
8
0
10
38
20
-73.3
11
52
21
-73.3
0
LINE
8
0
10
38
20
-59.3
11
38
21
-73.3
0
LINE
8
0
10
52
20
-59.3
11
52
21
-73.3
0
LINE
8
0
10
225.2
20
-59.3
11
239.2
21
-59.3
0
LINE
8
0
10
225.2
20
-73.3
11
239.2
21
-73.3
0
LINE
8
0
10
225.2
20
-59.3
11
225.2
21
-73.3
0
LINE
8
0
10
239.2
20
-59.3
11
239.2
21
-73.3
0
LINE
8
0
10
243.2
20
-59.3
11
257.2
21
-59.3
0
LINE
8
0
10
243.2
20
-73.3
11
257.2
21
-73.3
0
LINE
8
0
10
243.2
20
-59.3
11
243.2
21
-73.3
0
LINE
8
0
10
257.2
20
-59.3
11
257.2
21
-73.3
0
LINE
8
0
10
261.2
20
-59.3
11
275.2
21
-59.3
0
LINE
8
0
10
261.2
20
-73.3
11
275.2
21
-73.3
0
LINE
8
0
10
261.2
20
-59.3
11
261.2
21
-73.3
0
LINE
8
0
10
275.2
20
-59.3
11
275.2
21
-73.3
0
LINE
8
0
10
0
20
-74.8
11
277.2
21
-74.8
0
LINE
8
0
10
0
20
0
11
277.2
21
0
0
LINE
8
0
10
0
20
-74.8
11
0
21
0
0
LINE
8
0
10
277.2
20
-74.8
11
277.2
21
0
0
ENDSEC
0
EOF