ISO-10303-21;
HEADER;
/* Generated by software containing ST-Developer
 * from STEP Tools, Inc. (www.steptools.com) 
 */

FILE_DESCRIPTION(
/* description */ (''),
/* implementation_level */ '2;1');

FILE_NAME(
/* name */ 'SoftPart.step',
/* time_stamp */ '2026-05-27T21:27:40+02:00',
/* author */ (''),
/* organization */ (''),
/* preprocessor_version */ 'ST-DEVELOPER v20.1',
/* originating_system */ 'Autodesk Translation Framework v15.8.0.0',
/* authorisation */ '');

FILE_SCHEMA (('AUTOMOTIVE_DESIGN { 1 0 10303 214 3 1 1 }'));
ENDSEC;

DATA;
#10=MECHANICAL_DESIGN_GEOMETRIC_PRESENTATION_REPRESENTATION('',(#13),#1235);
#11=SHAPE_REPRESENTATION_RELATIONSHIP('SRR','None',#1242,#12);
#12=ADVANCED_BREP_SHAPE_REPRESENTATION('',(#14),#1234);
#13=STYLED_ITEM('',(#1252),#14);
#14=MANIFOLD_SOLID_BREP('Body1',#564);
#15=B_SPLINE_CURVE_WITH_KNOTS('',3,(#917,#918,#919,#920),.UNSPECIFIED.,
 .F.,.F.,(4,4),(-5.09234939148055,-5.07801167090836),.UNSPECIFIED.);
#16=B_SPLINE_CURVE_WITH_KNOTS('',3,(#921,#922,#923,#924,#925),
 .UNSPECIFIED.,.F.,.F.,(4,1,4),(0.,0.557011554875924,1.29969362804382),
 .UNSPECIFIED.);
#17=B_SPLINE_CURVE_WITH_KNOTS('',3,(#930,#931,#932,#933),.UNSPECIFIED.,
 .F.,.F.,(4,4),(1.29969362804383,1.33178693075374),.UNSPECIFIED.);
#18=B_SPLINE_CURVE_WITH_KNOTS('',3,(#939,#940,#941,#942),.UNSPECIFIED.,
 .F.,.F.,(4,4),(-5.1847154030818,-5.18213130283596),.UNSPECIFIED.);
#19=B_SPLINE_CURVE_WITH_KNOTS('',3,(#943,#944,#945,#946,#947,#948),
 .UNSPECIFIED.,.F.,.F.,(4,1,1,4),(1.33178693075203,2.03261812974001,2.49983892906532,
2.96705972839063),.UNSPECIFIED.);
#20=B_SPLINE_CURVE_WITH_KNOTS('',3,(#963,#964,#965,#966,#967),
 .UNSPECIFIED.,.F.,.F.,(4,1,4),(-5.07380227329615E-14,0.659050359055147,
1.53778417112874),.UNSPECIFIED.);
#21=B_SPLINE_CURVE_WITH_KNOTS('',3,(#973,#974,#975,#976),.UNSPECIFIED.,
 .F.,.F.,(4,4),(1.53778417112875,1.57079632679491),.UNSPECIFIED.);
#22=B_SPLINE_CURVE_WITH_KNOTS('',3,(#979,#980,#981,#982,#983),
 .UNSPECIFIED.,.F.,.F.,(4,1,4),(-1.5707963267949,-0.673198425769235,1.07923126915675E-14),
 .UNSPECIFIED.);
#23=B_SPLINE_CURVE_WITH_KNOTS('',3,(#984,#985,#986,#987),.UNSPECIFIED.,
 .F.,.F.,(4,4),(1.97231502904421,1.98719626926547),.UNSPECIFIED.);
#24=B_SPLINE_CURVE_WITH_KNOTS('',3,(#1016,#1017,#1018,#1019,#1020),
 .UNSPECIFIED.,.F.,.F.,(4,1,4),(-1.53778417112874,-0.659050359055147,5.07380227329615E-14),
 .UNSPECIFIED.);
#25=B_SPLINE_CURVE_WITH_KNOTS('',3,(#1047,#1048,#1049,#1050),
 .UNSPECIFIED.,.F.,.F.,(4,4),(-1.57079632679491,-1.53778417112875),
 .UNSPECIFIED.);
#26=B_SPLINE_CURVE_WITH_KNOTS('',3,(#1075,#1076,#1077,#1078,#1079),
 .UNSPECIFIED.,.F.,.F.,(4,1,4),(-1.07923126915675E-14,0.673198425769235,
1.5707963267949),.UNSPECIFIED.);
#27=B_SPLINE_CURVE_WITH_KNOTS('',3,(#1106,#1107,#1108,#1109,#1110),
 .UNSPECIFIED.,.F.,.F.,(4,1,4),(-1.29969362804382,-0.557011554875924,0.),
 .UNSPECIFIED.);
#28=B_SPLINE_CURVE_WITH_KNOTS('',3,(#1127,#1128,#1129,#1130),
 .UNSPECIFIED.,.F.,.F.,(4,4),(-1.98719626926547,-1.97231502904421),
 .UNSPECIFIED.);
#29=B_SPLINE_CURVE_WITH_KNOTS('',3,(#1153,#1154,#1155,#1156),
 .UNSPECIFIED.,.F.,.F.,(4,4),(5.07801167090836,5.09234939148055),
 .UNSPECIFIED.);
#30=B_SPLINE_CURVE_WITH_KNOTS('',3,(#1185,#1186,#1187,#1188,#1189,#1190),
 .UNSPECIFIED.,.F.,.F.,(4,1,1,4),(-2.96705972839063,-2.49983892906532,-2.03261812974001,
-1.33178693075203),.UNSPECIFIED.);
#31=B_SPLINE_CURVE_WITH_KNOTS('',3,(#1207,#1208,#1209,#1210),
 .UNSPECIFIED.,.F.,.F.,(4,4),(-1.33178693075374,-1.29969362804383),
 .UNSPECIFIED.);
#32=B_SPLINE_CURVE_WITH_KNOTS('',3,(#1227,#1228,#1229,#1230),
 .UNSPECIFIED.,.F.,.F.,(4,4),(5.18213130283596,5.1847154030818),
 .UNSPECIFIED.);
#33=PLANE('',#600);
#34=PLANE('',#602);
#35=PLANE('',#604);
#36=PLANE('',#605);
#37=PLANE('',#606);
#38=PLANE('',#608);
#39=PLANE('',#610);
#40=PLANE('',#611);
#41=PLANE('',#612);
#42=PLANE('',#613);
#43=PLANE('',#614);
#44=PLANE('',#615);
#45=B_SPLINE_SURFACE_WITH_KNOTS('',3,3,((#749,#750,#751,#752,#753,#754),
(#755,#756,#757,#758,#759,#760),(#761,#762,#763,#764,#765,#766),(#767,#768,
#769,#770,#771,#772),(#773,#774,#775,#776,#777,#778)),.UNSPECIFIED.,.F.,
 .F.,.F.,(4,1,4),(4,1,1,4),(0.,0.571428571428571,1.),(0.174532925199159,
0.889118396776366,1.36550871116117,1.84189902554597),.UNSPECIFIED.);
#46=B_SPLINE_SURFACE_WITH_KNOTS('',3,3,((#790,#791,#792,#793,#794),(#795,
#796,#797,#798,#799),(#800,#801,#802,#803,#804),(#805,#806,#807,#808,#809),
(#810,#811,#812,#813,#814)),.UNSPECIFIED.,.F.,.F.,.F.,(4,1,4),(4,1,4),(0.,
0.571428571428571,1.),(-1.29969362804387,-0.742682073167922,3.40000754860929E-15),
 .UNSPECIFIED.);
#47=B_SPLINE_SURFACE_WITH_KNOTS('',3,3,((#826,#827,#828,#829,#830,#831),
(#832,#833,#834,#835,#836,#837),(#838,#839,#840,#841,#842,#843),(#844,#845,
#846,#847,#848,#849),(#850,#851,#852,#853,#854,#855)),.UNSPECIFIED.,.F.,
 .F.,.F.,(4,1,4),(4,1,1,4),(0.,0.571428571428571,1.),(-1.18115322170023E-15,
0.448798950512827,0.897597901025655,1.5707963267949),.UNSPECIFIED.);
#48=B_SPLINE_SURFACE_WITH_KNOTS('',3,3,((#867,#868,#869,#870,#871,#872),
(#873,#874,#875,#876,#877,#878),(#879,#880,#881,#882,#883,#884),(#885,#886,
#887,#888,#889,#890),(#891,#892,#893,#894,#895,#896)),.UNSPECIFIED.,.F.,
 .F.,.F.,(4,1,4),(4,1,1,4),(0.,0.571428571428571,1.),(-2.42028619368284E-14,
0.673198425769241,1.12199737628208,1.57079632679493),.UNSPECIFIED.);
#49=B_SPLINE_SURFACE_WITH_KNOTS('',3,3,((#994,#995,#996,#997,#998),(#999,
#1000,#1001,#1002,#1003),(#1004,#1005,#1006,#1007,#1008),(#1009,#1010,#1011,
#1012,#1013)),.UNSPECIFIED.,.F.,.F.,.F.,(4,4),(4,1,4),(0.,1.),(-1.53778417112874,
-0.659050359055147,5.07380227329615E-14),.UNSPECIFIED.);
#50=B_SPLINE_SURFACE_WITH_KNOTS('',3,3,((#1031,#1032,#1033,#1034),(#1035,
#1036,#1037,#1038),(#1039,#1040,#1041,#1042),(#1043,#1044,#1045,#1046)),
 .UNSPECIFIED.,.F.,.F.,.F.,(4,4),(4,4),(0.,1.),(1.53778417112875,1.57079632679491),
 .UNSPECIFIED.);
#51=B_SPLINE_SURFACE_WITH_KNOTS('',3,3,((#1051,#1052,#1053,#1054,#1055),
(#1056,#1057,#1058,#1059,#1060),(#1061,#1062,#1063,#1064,#1065),(#1066,
#1067,#1068,#1069,#1070)),.UNSPECIFIED.,.F.,.F.,.F.,(4,4),(4,1,4),(0.,1.),
(-1.07923126915675E-14,0.673198425769235,1.5707963267949),.UNSPECIFIED.);
#52=B_SPLINE_SURFACE_WITH_KNOTS('',3,3,((#1084,#1085,#1086,#1087,#1088),
(#1089,#1090,#1091,#1092,#1093),(#1094,#1095,#1096,#1097,#1098),(#1099,
#1100,#1101,#1102,#1103)),.UNSPECIFIED.,.F.,.F.,.F.,(4,4),(4,1,4),(0.,1.),
(-1.29969362804382,-0.557011554875924,0.),.UNSPECIFIED.);
#53=B_SPLINE_SURFACE_WITH_KNOTS('',3,3,((#1111,#1112,#1113,#1114),(#1115,
#1116,#1117,#1118),(#1119,#1120,#1121,#1122),(#1123,#1124,#1125,#1126)),
 .UNSPECIFIED.,.F.,.F.,.F.,(4,4),(4,4),(0.,1.),(1.97231502904421,1.98719626926547),
 .UNSPECIFIED.);
#54=B_SPLINE_SURFACE_WITH_KNOTS('',3,3,((#1137,#1138,#1139,#1140),(#1141,
#1142,#1143,#1144),(#1145,#1146,#1147,#1148),(#1149,#1150,#1151,#1152)),
 .UNSPECIFIED.,.F.,.F.,.F.,(4,4),(4,4),(0.,1.),(-5.09234939148055,-5.07801167090836),
 .UNSPECIFIED.);
#55=B_SPLINE_SURFACE_WITH_KNOTS('',3,3,((#1157,#1158,#1159,#1160,#1161,
#1162),(#1163,#1164,#1165,#1166,#1167,#1168),(#1169,#1170,#1171,#1172,#1173,
#1174),(#1175,#1176,#1177,#1178,#1179,#1180)),.UNSPECIFIED.,.F.,.F.,.F.,
(4,4),(4,1,1,4),(0.,1.),(1.33178693075203,2.03261812974001,2.49983892906532,
2.96705972839063),.UNSPECIFIED.);
#56=B_SPLINE_SURFACE_WITH_KNOTS('',3,3,((#1191,#1192,#1193,#1194),(#1195,
#1196,#1197,#1198),(#1199,#1200,#1201,#1202),(#1203,#1204,#1205,#1206)),
 .UNSPECIFIED.,.F.,.F.,.F.,(4,4),(4,4),(0.,1.),(1.29969362804383,1.33178693075374),
 .UNSPECIFIED.);
#57=B_SPLINE_SURFACE_WITH_KNOTS('',3,3,((#1211,#1212,#1213,#1214),(#1215,
#1216,#1217,#1218),(#1219,#1220,#1221,#1222),(#1223,#1224,#1225,#1226)),
 .UNSPECIFIED.,.F.,.F.,.F.,(4,4),(4,4),(0.,1.),(-5.1847154030818,-5.18213130283596),
 .UNSPECIFIED.);
#58=FACE_OUTER_BOUND('',#92,.T.);
#59=FACE_OUTER_BOUND('',#93,.T.);
#60=FACE_OUTER_BOUND('',#94,.T.);
#61=FACE_OUTER_BOUND('',#95,.T.);
#62=FACE_OUTER_BOUND('',#96,.T.);
#63=FACE_OUTER_BOUND('',#97,.T.);
#64=FACE_OUTER_BOUND('',#98,.T.);
#65=FACE_OUTER_BOUND('',#99,.T.);
#66=FACE_OUTER_BOUND('',#100,.T.);
#67=FACE_OUTER_BOUND('',#101,.T.);
#68=FACE_OUTER_BOUND('',#102,.T.);
#69=FACE_OUTER_BOUND('',#103,.T.);
#70=FACE_OUTER_BOUND('',#104,.T.);
#71=FACE_OUTER_BOUND('',#105,.T.);
#72=FACE_OUTER_BOUND('',#106,.T.);
#73=FACE_OUTER_BOUND('',#107,.T.);
#74=FACE_OUTER_BOUND('',#108,.T.);
#75=FACE_OUTER_BOUND('',#109,.T.);
#76=FACE_OUTER_BOUND('',#110,.T.);
#77=FACE_OUTER_BOUND('',#111,.T.);
#78=FACE_OUTER_BOUND('',#112,.T.);
#79=FACE_OUTER_BOUND('',#113,.T.);
#80=FACE_OUTER_BOUND('',#114,.T.);
#81=FACE_OUTER_BOUND('',#115,.T.);
#82=FACE_OUTER_BOUND('',#116,.T.);
#83=FACE_OUTER_BOUND('',#117,.T.);
#84=FACE_OUTER_BOUND('',#118,.T.);
#85=FACE_OUTER_BOUND('',#119,.T.);
#86=FACE_OUTER_BOUND('',#120,.T.);
#87=FACE_OUTER_BOUND('',#121,.T.);
#88=FACE_OUTER_BOUND('',#122,.T.);
#89=FACE_OUTER_BOUND('',#123,.T.);
#90=FACE_OUTER_BOUND('',#124,.T.);
#91=FACE_OUTER_BOUND('',#125,.T.);
#92=EDGE_LOOP('',(#361,#362,#363,#364));
#93=EDGE_LOOP('',(#365,#366,#367,#368));
#94=EDGE_LOOP('',(#369,#370,#371,#372));
#95=EDGE_LOOP('',(#373,#374,#375,#376));
#96=EDGE_LOOP('',(#377,#378,#379,#380));
#97=EDGE_LOOP('',(#381,#382,#383,#384));
#98=EDGE_LOOP('',(#385,#386,#387,#388));
#99=EDGE_LOOP('',(#389,#390,#391,#392));
#100=EDGE_LOOP('',(#393,#394,#395,#396,#397));
#101=EDGE_LOOP('',(#398,#399,#400,#401));
#102=EDGE_LOOP('',(#402,#403,#404,#405,#406));
#103=EDGE_LOOP('',(#407,#408,#409,#410,#411));
#104=EDGE_LOOP('',(#412,#413,#414,#415,#416));
#105=EDGE_LOOP('',(#417,#418,#419,#420,#421));
#106=EDGE_LOOP('',(#422,#423,#424,#425,#426,#427,#428,#429,#430));
#107=EDGE_LOOP('',(#431,#432,#433,#434,#435));
#108=EDGE_LOOP('',(#436,#437,#438,#439));
#109=EDGE_LOOP('',(#440,#441,#442,#443,#444));
#110=EDGE_LOOP('',(#445,#446,#447,#448,#449));
#111=EDGE_LOOP('',(#450,#451,#452,#453));
#112=EDGE_LOOP('',(#454,#455,#456,#457));
#113=EDGE_LOOP('',(#458,#459,#460,#461,#462));
#114=EDGE_LOOP('',(#463,#464,#465,#466));
#115=EDGE_LOOP('',(#467,#468,#469,#470));
#116=EDGE_LOOP('',(#471,#472,#473,#474));
#117=EDGE_LOOP('',(#475,#476,#477,#478));
#118=EDGE_LOOP('',(#479,#480,#481,#482));
#119=EDGE_LOOP('',(#483,#484,#485,#486));
#120=EDGE_LOOP('',(#487,#488,#489,#490));
#121=EDGE_LOOP('',(#491,#492,#493,#494));
#122=EDGE_LOOP('',(#495,#496,#497,#498));
#123=EDGE_LOOP('',(#499,#500,#501,#502));
#124=EDGE_LOOP('',(#503,#504,#505,#506));
#125=EDGE_LOOP('',(#507,#508,#509,#510,#511,#512,#513,#514,#515,#516,#517,
#518,#519,#520));
#126=ELLIPSE('',#580,3.01149043777948,3.);
#127=ELLIPSE('',#582,1.5020578089028,1.49999999999999);
#128=ELLIPSE('',#583,4.50068635446703,4.50000000000002);
#129=ELLIPSE('',#587,1.5020578089028,1.49999999999999);
#130=ELLIPSE('',#588,4.50068635446704,4.49999999999995);
#131=ELLIPSE('',#592,1.50205780890284,1.50000000000003);
#132=ELLIPSE('',#593,4.50068635446708,4.50000000000002);
#133=ELLIPSE('',#597,1.50205780890277,1.49999999999996);
#134=ELLIPSE('',#598,4.50068635446701,4.49999999999991);
#135=CIRCLE('',#579,2.99999999999997);
#136=CIRCLE('',#581,3.00000000000003);
#137=CIRCLE('',#585,2.99999999999995);
#138=CIRCLE('',#586,2.99999999999998);
#139=CIRCLE('',#590,2.99999999999998);
#140=CIRCLE('',#591,3.00000000000004);
#141=CIRCLE('',#595,2.9999999999999);
#142=CIRCLE('',#596,3.);
#143=LINE('',#743,#188);
#144=LINE('',#747,#189);
#145=LINE('',#788,#190);
#146=LINE('',#789,#191);
#147=LINE('',#824,#192);
#148=LINE('',#825,#193);
#149=LINE('',#865,#194);
#150=LINE('',#866,#195);
#151=LINE('',#903,#196);
#152=LINE('',#905,#197);
#153=LINE('',#906,#198);
#154=LINE('',#909,#199);
#155=LINE('',#911,#200);
#156=LINE('',#912,#201);
#157=LINE('',#915,#202);
#158=LINE('',#928,#203);
#159=LINE('',#934,#204);
#160=LINE('',#937,#205);
#161=LINE('',#951,#206);
#162=LINE('',#952,#207);
#163=LINE('',#956,#208);
#164=LINE('',#958,#209);
#165=LINE('',#959,#210);
#166=LINE('',#962,#211);
#167=LINE('',#970,#212);
#168=LINE('',#972,#213);
#169=LINE('',#990,#214);
#170=LINE('',#992,#215);
#171=LINE('',#993,#216);
#172=LINE('',#1015,#217);
#173=LINE('',#1023,#218);
#174=LINE('',#1024,#219);
#175=LINE('',#1027,#220);
#176=LINE('',#1029,#221);
#177=LINE('',#1030,#222);
#178=LINE('',#1072,#223);
#179=LINE('',#1074,#224);
#180=LINE('',#1082,#225);
#181=LINE('',#1083,#226);
#182=LINE('',#1105,#227);
#183=LINE('',#1133,#228);
#184=LINE('',#1135,#229);
#185=LINE('',#1136,#230);
#186=LINE('',#1182,#231);
#187=LINE('',#1184,#232);
#188=VECTOR('',#620,10.);
#189=VECTOR('',#623,10.);
#190=VECTOR('',#636,10.);
#191=VECTOR('',#637,10.);
#192=VECTOR('',#648,10.);
#193=VECTOR('',#649,10.);
#194=VECTOR('',#660,10.);
#195=VECTOR('',#661,10.);
#196=VECTOR('',#670,10.);
#197=VECTOR('',#671,10.);
#198=VECTOR('',#672,10.);
#199=VECTOR('',#675,10.);
#200=VECTOR('',#676,10.);
#201=VECTOR('',#677,10.);
#202=VECTOR('',#680,10.);
#203=VECTOR('',#683,10.);
#204=VECTOR('',#684,10.);
#205=VECTOR('',#687,10.);
#206=VECTOR('',#690,10.);
#207=VECTOR('',#691,10.);
#208=VECTOR('',#696,10.);
#209=VECTOR('',#697,10.);
#210=VECTOR('',#698,10.);
#211=VECTOR('',#701,10.);
#212=VECTOR('',#704,10.);
#213=VECTOR('',#705,10.);
#214=VECTOR('',#710,10.);
#215=VECTOR('',#711,10.);
#216=VECTOR('',#712,10.);
#217=VECTOR('',#713,10.);
#218=VECTOR('',#716,10.);
#219=VECTOR('',#717,10.);
#220=VECTOR('',#720,10.);
#221=VECTOR('',#721,10.);
#222=VECTOR('',#722,10.);
#223=VECTOR('',#723,10.);
#224=VECTOR('',#724,10.);
#225=VECTOR('',#727,10.);
#226=VECTOR('',#728,10.);
#227=VECTOR('',#729,10.);
#228=VECTOR('',#732,10.);
#229=VECTOR('',#733,10.);
#230=VECTOR('',#734,10.);
#231=VECTOR('',#735,10.);
#232=VECTOR('',#736,10.);
#233=VERTEX_POINT('',#741);
#234=VERTEX_POINT('',#742);
#235=VERTEX_POINT('',#744);
#236=VERTEX_POINT('',#746);
#237=VERTEX_POINT('',#779);
#238=VERTEX_POINT('',#780);
#239=VERTEX_POINT('',#785);
#240=VERTEX_POINT('',#786);
#241=VERTEX_POINT('',#815);
#242=VERTEX_POINT('',#816);
#243=VERTEX_POINT('',#821);
#244=VERTEX_POINT('',#822);
#245=VERTEX_POINT('',#856);
#246=VERTEX_POINT('',#857);
#247=VERTEX_POINT('',#862);
#248=VERTEX_POINT('',#863);
#249=VERTEX_POINT('',#897);
#250=VERTEX_POINT('',#898);
#251=VERTEX_POINT('',#904);
#252=VERTEX_POINT('',#908);
#253=VERTEX_POINT('',#910);
#254=VERTEX_POINT('',#914);
#255=VERTEX_POINT('',#916);
#256=VERTEX_POINT('',#927);
#257=VERTEX_POINT('',#929);
#258=VERTEX_POINT('',#936);
#259=VERTEX_POINT('',#938);
#260=VERTEX_POINT('',#950);
#261=VERTEX_POINT('',#955);
#262=VERTEX_POINT('',#957);
#263=VERTEX_POINT('',#961);
#264=VERTEX_POINT('',#969);
#265=VERTEX_POINT('',#971);
#266=VERTEX_POINT('',#978);
#267=VERTEX_POINT('',#989);
#268=VERTEX_POINT('',#991);
#269=VERTEX_POINT('',#1014);
#270=VERTEX_POINT('',#1022);
#271=VERTEX_POINT('',#1026);
#272=VERTEX_POINT('',#1028);
#273=VERTEX_POINT('',#1071);
#274=VERTEX_POINT('',#1073);
#275=VERTEX_POINT('',#1081);
#276=VERTEX_POINT('',#1104);
#277=VERTEX_POINT('',#1132);
#278=VERTEX_POINT('',#1134);
#279=VERTEX_POINT('',#1181);
#280=VERTEX_POINT('',#1183);
#281=EDGE_CURVE('',#233,#234,#143,.T.);
#282=EDGE_CURVE('',#234,#235,#135,.T.);
#283=EDGE_CURVE('',#235,#236,#144,.T.);
#284=EDGE_CURVE('',#233,#236,#126,.T.);
#285=EDGE_CURVE('',#237,#238,#136,.T.);
#286=EDGE_CURVE('',#238,#235,#127,.T.);
#287=EDGE_CURVE('',#234,#237,#128,.T.);
#288=EDGE_CURVE('',#239,#240,#137,.T.);
#289=EDGE_CURVE('',#240,#238,#145,.T.);
#290=EDGE_CURVE('',#237,#239,#146,.T.);
#291=EDGE_CURVE('',#241,#242,#138,.T.);
#292=EDGE_CURVE('',#242,#240,#129,.T.);
#293=EDGE_CURVE('',#239,#241,#130,.T.);
#294=EDGE_CURVE('',#243,#244,#139,.T.);
#295=EDGE_CURVE('',#244,#242,#147,.T.);
#296=EDGE_CURVE('',#241,#243,#148,.T.);
#297=EDGE_CURVE('',#245,#246,#140,.T.);
#298=EDGE_CURVE('',#246,#244,#131,.T.);
#299=EDGE_CURVE('',#243,#245,#132,.T.);
#300=EDGE_CURVE('',#247,#248,#141,.T.);
#301=EDGE_CURVE('',#248,#246,#149,.T.);
#302=EDGE_CURVE('',#245,#247,#150,.T.);
#303=EDGE_CURVE('',#249,#250,#142,.T.);
#304=EDGE_CURVE('',#250,#248,#133,.T.);
#305=EDGE_CURVE('',#247,#249,#134,.T.);
#306=EDGE_CURVE('',#236,#250,#151,.T.);
#307=EDGE_CURVE('',#249,#251,#152,.T.);
#308=EDGE_CURVE('',#251,#233,#153,.T.);
#309=EDGE_CURVE('',#252,#241,#154,.T.);
#310=EDGE_CURVE('',#253,#252,#155,.T.);
#311=EDGE_CURVE('',#253,#243,#156,.T.);
#312=EDGE_CURVE('',#254,#239,#157,.T.);
#313=EDGE_CURVE('',#255,#254,#15,.T.);
#314=EDGE_CURVE('',#252,#255,#16,.T.);
#315=EDGE_CURVE('',#256,#237,#158,.T.);
#316=EDGE_CURVE('',#257,#256,#17,.T.);
#317=EDGE_CURVE('',#254,#257,#159,.T.);
#318=EDGE_CURVE('',#258,#234,#160,.T.);
#319=EDGE_CURVE('',#259,#258,#18,.T.);
#320=EDGE_CURVE('',#256,#259,#19,.T.);
#321=EDGE_CURVE('',#260,#251,#161,.T.);
#322=EDGE_CURVE('',#258,#260,#162,.T.);
#323=EDGE_CURVE('',#261,#249,#163,.T.);
#324=EDGE_CURVE('',#262,#261,#164,.T.);
#325=EDGE_CURVE('',#260,#262,#165,.T.);
#326=EDGE_CURVE('',#263,#247,#166,.T.);
#327=EDGE_CURVE('',#261,#263,#20,.T.);
#328=EDGE_CURVE('',#264,#245,#167,.T.);
#329=EDGE_CURVE('',#265,#264,#168,.T.);
#330=EDGE_CURVE('',#263,#265,#21,.T.);
#331=EDGE_CURVE('',#266,#253,#22,.T.);
#332=EDGE_CURVE('',#264,#266,#23,.T.);
#333=EDGE_CURVE('',#261,#267,#169,.T.);
#334=EDGE_CURVE('',#267,#268,#170,.T.);
#335=EDGE_CURVE('',#268,#262,#171,.T.);
#336=EDGE_CURVE('',#263,#269,#172,.T.);
#337=EDGE_CURVE('',#269,#267,#24,.T.);
#338=EDGE_CURVE('',#268,#270,#173,.T.);
#339=EDGE_CURVE('',#270,#258,#174,.T.);
#340=EDGE_CURVE('',#264,#271,#175,.T.);
#341=EDGE_CURVE('',#271,#272,#176,.T.);
#342=EDGE_CURVE('',#272,#265,#177,.T.);
#343=EDGE_CURVE('',#272,#269,#25,.T.);
#344=EDGE_CURVE('',#273,#266,#178,.T.);
#345=EDGE_CURVE('',#253,#274,#179,.T.);
#346=EDGE_CURVE('',#274,#273,#26,.T.);
#347=EDGE_CURVE('',#252,#275,#180,.T.);
#348=EDGE_CURVE('',#275,#274,#181,.T.);
#349=EDGE_CURVE('',#255,#276,#182,.T.);
#350=EDGE_CURVE('',#276,#275,#27,.T.);
#351=EDGE_CURVE('',#273,#271,#28,.T.);
#352=EDGE_CURVE('',#277,#254,#183,.T.);
#353=EDGE_CURVE('',#257,#278,#184,.T.);
#354=EDGE_CURVE('',#278,#277,#185,.T.);
#355=EDGE_CURVE('',#277,#276,#29,.T.);
#356=EDGE_CURVE('',#279,#256,#186,.T.);
#357=EDGE_CURVE('',#259,#280,#187,.T.);
#358=EDGE_CURVE('',#280,#279,#30,.T.);
#359=EDGE_CURVE('',#279,#278,#31,.T.);
#360=EDGE_CURVE('',#270,#280,#32,.T.);
#361=ORIENTED_EDGE('',*,*,#281,.T.);
#362=ORIENTED_EDGE('',*,*,#282,.T.);
#363=ORIENTED_EDGE('',*,*,#283,.T.);
#364=ORIENTED_EDGE('',*,*,#284,.F.);
#365=ORIENTED_EDGE('',*,*,#285,.T.);
#366=ORIENTED_EDGE('',*,*,#286,.T.);
#367=ORIENTED_EDGE('',*,*,#282,.F.);
#368=ORIENTED_EDGE('',*,*,#287,.T.);
#369=ORIENTED_EDGE('',*,*,#288,.T.);
#370=ORIENTED_EDGE('',*,*,#289,.T.);
#371=ORIENTED_EDGE('',*,*,#285,.F.);
#372=ORIENTED_EDGE('',*,*,#290,.T.);
#373=ORIENTED_EDGE('',*,*,#291,.T.);
#374=ORIENTED_EDGE('',*,*,#292,.T.);
#375=ORIENTED_EDGE('',*,*,#288,.F.);
#376=ORIENTED_EDGE('',*,*,#293,.T.);
#377=ORIENTED_EDGE('',*,*,#294,.T.);
#378=ORIENTED_EDGE('',*,*,#295,.T.);
#379=ORIENTED_EDGE('',*,*,#291,.F.);
#380=ORIENTED_EDGE('',*,*,#296,.T.);
#381=ORIENTED_EDGE('',*,*,#297,.T.);
#382=ORIENTED_EDGE('',*,*,#298,.T.);
#383=ORIENTED_EDGE('',*,*,#294,.F.);
#384=ORIENTED_EDGE('',*,*,#299,.T.);
#385=ORIENTED_EDGE('',*,*,#300,.T.);
#386=ORIENTED_EDGE('',*,*,#301,.T.);
#387=ORIENTED_EDGE('',*,*,#297,.F.);
#388=ORIENTED_EDGE('',*,*,#302,.T.);
#389=ORIENTED_EDGE('',*,*,#303,.T.);
#390=ORIENTED_EDGE('',*,*,#304,.T.);
#391=ORIENTED_EDGE('',*,*,#300,.F.);
#392=ORIENTED_EDGE('',*,*,#305,.T.);
#393=ORIENTED_EDGE('',*,*,#306,.T.);
#394=ORIENTED_EDGE('',*,*,#303,.F.);
#395=ORIENTED_EDGE('',*,*,#307,.T.);
#396=ORIENTED_EDGE('',*,*,#308,.T.);
#397=ORIENTED_EDGE('',*,*,#284,.T.);
#398=ORIENTED_EDGE('',*,*,#296,.F.);
#399=ORIENTED_EDGE('',*,*,#309,.F.);
#400=ORIENTED_EDGE('',*,*,#310,.F.);
#401=ORIENTED_EDGE('',*,*,#311,.T.);
#402=ORIENTED_EDGE('',*,*,#293,.F.);
#403=ORIENTED_EDGE('',*,*,#312,.F.);
#404=ORIENTED_EDGE('',*,*,#313,.F.);
#405=ORIENTED_EDGE('',*,*,#314,.F.);
#406=ORIENTED_EDGE('',*,*,#309,.T.);
#407=ORIENTED_EDGE('',*,*,#290,.F.);
#408=ORIENTED_EDGE('',*,*,#315,.F.);
#409=ORIENTED_EDGE('',*,*,#316,.F.);
#410=ORIENTED_EDGE('',*,*,#317,.F.);
#411=ORIENTED_EDGE('',*,*,#312,.T.);
#412=ORIENTED_EDGE('',*,*,#287,.F.);
#413=ORIENTED_EDGE('',*,*,#318,.F.);
#414=ORIENTED_EDGE('',*,*,#319,.F.);
#415=ORIENTED_EDGE('',*,*,#320,.F.);
#416=ORIENTED_EDGE('',*,*,#315,.T.);
#417=ORIENTED_EDGE('',*,*,#281,.F.);
#418=ORIENTED_EDGE('',*,*,#308,.F.);
#419=ORIENTED_EDGE('',*,*,#321,.F.);
#420=ORIENTED_EDGE('',*,*,#322,.F.);
#421=ORIENTED_EDGE('',*,*,#318,.T.);
#422=ORIENTED_EDGE('',*,*,#283,.F.);
#423=ORIENTED_EDGE('',*,*,#286,.F.);
#424=ORIENTED_EDGE('',*,*,#289,.F.);
#425=ORIENTED_EDGE('',*,*,#292,.F.);
#426=ORIENTED_EDGE('',*,*,#295,.F.);
#427=ORIENTED_EDGE('',*,*,#298,.F.);
#428=ORIENTED_EDGE('',*,*,#301,.F.);
#429=ORIENTED_EDGE('',*,*,#304,.F.);
#430=ORIENTED_EDGE('',*,*,#306,.F.);
#431=ORIENTED_EDGE('',*,*,#307,.F.);
#432=ORIENTED_EDGE('',*,*,#323,.F.);
#433=ORIENTED_EDGE('',*,*,#324,.F.);
#434=ORIENTED_EDGE('',*,*,#325,.F.);
#435=ORIENTED_EDGE('',*,*,#321,.T.);
#436=ORIENTED_EDGE('',*,*,#305,.F.);
#437=ORIENTED_EDGE('',*,*,#326,.F.);
#438=ORIENTED_EDGE('',*,*,#327,.F.);
#439=ORIENTED_EDGE('',*,*,#323,.T.);
#440=ORIENTED_EDGE('',*,*,#302,.F.);
#441=ORIENTED_EDGE('',*,*,#328,.F.);
#442=ORIENTED_EDGE('',*,*,#329,.F.);
#443=ORIENTED_EDGE('',*,*,#330,.F.);
#444=ORIENTED_EDGE('',*,*,#326,.T.);
#445=ORIENTED_EDGE('',*,*,#299,.F.);
#446=ORIENTED_EDGE('',*,*,#311,.F.);
#447=ORIENTED_EDGE('',*,*,#331,.F.);
#448=ORIENTED_EDGE('',*,*,#332,.F.);
#449=ORIENTED_EDGE('',*,*,#328,.T.);
#450=ORIENTED_EDGE('',*,*,#324,.T.);
#451=ORIENTED_EDGE('',*,*,#333,.T.);
#452=ORIENTED_EDGE('',*,*,#334,.T.);
#453=ORIENTED_EDGE('',*,*,#335,.T.);
#454=ORIENTED_EDGE('',*,*,#336,.T.);
#455=ORIENTED_EDGE('',*,*,#337,.T.);
#456=ORIENTED_EDGE('',*,*,#333,.F.);
#457=ORIENTED_EDGE('',*,*,#327,.T.);
#458=ORIENTED_EDGE('',*,*,#338,.T.);
#459=ORIENTED_EDGE('',*,*,#339,.T.);
#460=ORIENTED_EDGE('',*,*,#322,.T.);
#461=ORIENTED_EDGE('',*,*,#325,.T.);
#462=ORIENTED_EDGE('',*,*,#335,.F.);
#463=ORIENTED_EDGE('',*,*,#340,.T.);
#464=ORIENTED_EDGE('',*,*,#341,.T.);
#465=ORIENTED_EDGE('',*,*,#342,.T.);
#466=ORIENTED_EDGE('',*,*,#329,.T.);
#467=ORIENTED_EDGE('',*,*,#342,.F.);
#468=ORIENTED_EDGE('',*,*,#343,.T.);
#469=ORIENTED_EDGE('',*,*,#336,.F.);
#470=ORIENTED_EDGE('',*,*,#330,.T.);
#471=ORIENTED_EDGE('',*,*,#344,.T.);
#472=ORIENTED_EDGE('',*,*,#331,.T.);
#473=ORIENTED_EDGE('',*,*,#345,.T.);
#474=ORIENTED_EDGE('',*,*,#346,.T.);
#475=ORIENTED_EDGE('',*,*,#345,.F.);
#476=ORIENTED_EDGE('',*,*,#310,.T.);
#477=ORIENTED_EDGE('',*,*,#347,.T.);
#478=ORIENTED_EDGE('',*,*,#348,.T.);
#479=ORIENTED_EDGE('',*,*,#347,.F.);
#480=ORIENTED_EDGE('',*,*,#314,.T.);
#481=ORIENTED_EDGE('',*,*,#349,.T.);
#482=ORIENTED_EDGE('',*,*,#350,.T.);
#483=ORIENTED_EDGE('',*,*,#344,.F.);
#484=ORIENTED_EDGE('',*,*,#351,.T.);
#485=ORIENTED_EDGE('',*,*,#340,.F.);
#486=ORIENTED_EDGE('',*,*,#332,.T.);
#487=ORIENTED_EDGE('',*,*,#352,.T.);
#488=ORIENTED_EDGE('',*,*,#317,.T.);
#489=ORIENTED_EDGE('',*,*,#353,.T.);
#490=ORIENTED_EDGE('',*,*,#354,.T.);
#491=ORIENTED_EDGE('',*,*,#352,.F.);
#492=ORIENTED_EDGE('',*,*,#355,.T.);
#493=ORIENTED_EDGE('',*,*,#349,.F.);
#494=ORIENTED_EDGE('',*,*,#313,.T.);
#495=ORIENTED_EDGE('',*,*,#356,.T.);
#496=ORIENTED_EDGE('',*,*,#320,.T.);
#497=ORIENTED_EDGE('',*,*,#357,.T.);
#498=ORIENTED_EDGE('',*,*,#358,.T.);
#499=ORIENTED_EDGE('',*,*,#356,.F.);
#500=ORIENTED_EDGE('',*,*,#359,.T.);
#501=ORIENTED_EDGE('',*,*,#353,.F.);
#502=ORIENTED_EDGE('',*,*,#316,.T.);
#503=ORIENTED_EDGE('',*,*,#339,.F.);
#504=ORIENTED_EDGE('',*,*,#360,.T.);
#505=ORIENTED_EDGE('',*,*,#357,.F.);
#506=ORIENTED_EDGE('',*,*,#319,.T.);
#507=ORIENTED_EDGE('',*,*,#358,.F.);
#508=ORIENTED_EDGE('',*,*,#360,.F.);
#509=ORIENTED_EDGE('',*,*,#338,.F.);
#510=ORIENTED_EDGE('',*,*,#334,.F.);
#511=ORIENTED_EDGE('',*,*,#337,.F.);
#512=ORIENTED_EDGE('',*,*,#343,.F.);
#513=ORIENTED_EDGE('',*,*,#341,.F.);
#514=ORIENTED_EDGE('',*,*,#351,.F.);
#515=ORIENTED_EDGE('',*,*,#346,.F.);
#516=ORIENTED_EDGE('',*,*,#348,.F.);
#517=ORIENTED_EDGE('',*,*,#350,.F.);
#518=ORIENTED_EDGE('',*,*,#355,.F.);
#519=ORIENTED_EDGE('',*,*,#354,.F.);
#520=ORIENTED_EDGE('',*,*,#359,.F.);
#521=CYLINDRICAL_SURFACE('',#578,3.);
#522=CYLINDRICAL_SURFACE('',#584,3.);
#523=CYLINDRICAL_SURFACE('',#589,3.);
#524=CYLINDRICAL_SURFACE('',#594,3.);
#525=CYLINDRICAL_SURFACE('',#599,3.);
#526=CYLINDRICAL_SURFACE('',#601,4.49999999999999);
#527=CYLINDRICAL_SURFACE('',#603,4.49999999999999);
#528=CYLINDRICAL_SURFACE('',#607,4.49999999999996);
#529=CYLINDRICAL_SURFACE('',#609,4.50000000000003);
#530=ADVANCED_FACE('',(#58),#521,.T.);
#531=ADVANCED_FACE('',(#59),#45,.F.);
#532=ADVANCED_FACE('',(#60),#522,.T.);
#533=ADVANCED_FACE('',(#61),#46,.F.);
#534=ADVANCED_FACE('',(#62),#523,.T.);
#535=ADVANCED_FACE('',(#63),#47,.F.);
#536=ADVANCED_FACE('',(#64),#524,.T.);
#537=ADVANCED_FACE('',(#65),#48,.F.);
#538=ADVANCED_FACE('',(#66),#525,.T.);
#539=ADVANCED_FACE('',(#67),#33,.T.);
#540=ADVANCED_FACE('',(#68),#526,.T.);
#541=ADVANCED_FACE('',(#69),#34,.T.);
#542=ADVANCED_FACE('',(#70),#527,.T.);
#543=ADVANCED_FACE('',(#71),#35,.T.);
#544=ADVANCED_FACE('',(#72),#36,.T.);
#545=ADVANCED_FACE('',(#73),#37,.T.);
#546=ADVANCED_FACE('',(#74),#528,.T.);
#547=ADVANCED_FACE('',(#75),#38,.T.);
#548=ADVANCED_FACE('',(#76),#529,.T.);
#549=ADVANCED_FACE('',(#77),#39,.T.);
#550=ADVANCED_FACE('',(#78),#49,.T.);
#551=ADVANCED_FACE('',(#79),#40,.T.);
#552=ADVANCED_FACE('',(#80),#41,.T.);
#553=ADVANCED_FACE('',(#81),#50,.T.);
#554=ADVANCED_FACE('',(#82),#51,.T.);
#555=ADVANCED_FACE('',(#83),#42,.T.);
#556=ADVANCED_FACE('',(#84),#52,.T.);
#557=ADVANCED_FACE('',(#85),#53,.T.);
#558=ADVANCED_FACE('',(#86),#43,.T.);
#559=ADVANCED_FACE('',(#87),#54,.T.);
#560=ADVANCED_FACE('',(#88),#55,.T.);
#561=ADVANCED_FACE('',(#89),#56,.T.);
#562=ADVANCED_FACE('',(#90),#57,.T.);
#563=ADVANCED_FACE('',(#91),#44,.F.);
#564=CLOSED_SHELL('',(#530,#531,#532,#533,#534,#535,#536,#537,#538,#539,
#540,#541,#542,#543,#544,#545,#546,#547,#548,#549,#550,#551,#552,#553,#554,
#555,#556,#557,#558,#559,#560,#561,#562,#563));
#565=DERIVED_UNIT_ELEMENT(#567,1.);
#566=DERIVED_UNIT_ELEMENT(#1237,-3.);
#567=(
MASS_UNIT()
NAMED_UNIT(*)
SI_UNIT(.KILO.,.GRAM.)
);
#568=DERIVED_UNIT((#565,#566));
#569=MEASURE_REPRESENTATION_ITEM('density measure',
POSITIVE_RATIO_MEASURE(952.),#568);
#570=PROPERTY_DEFINITION_REPRESENTATION(#575,#572);
#571=PROPERTY_DEFINITION_REPRESENTATION(#576,#573);
#572=REPRESENTATION('material name',(#574),#1234);
#573=REPRESENTATION('density',(#569),#1234);
#574=DESCRIPTIVE_REPRESENTATION_ITEM('Plastic, Opaque Black',
'Plastic, Opaque Black');
#575=PROPERTY_DEFINITION('material property','material name',#1244);
#576=PROPERTY_DEFINITION('material property','density of part',#1244);
#577=AXIS2_PLACEMENT_3D('',#739,#616,#617);
#578=AXIS2_PLACEMENT_3D('',#740,#618,#619);
#579=AXIS2_PLACEMENT_3D('',#745,#621,#622);
#580=AXIS2_PLACEMENT_3D('',#748,#624,#625);
#581=AXIS2_PLACEMENT_3D('',#781,#626,#627);
#582=AXIS2_PLACEMENT_3D('',#782,#628,#629);
#583=AXIS2_PLACEMENT_3D('',#783,#630,#631);
#584=AXIS2_PLACEMENT_3D('',#784,#632,#633);
#585=AXIS2_PLACEMENT_3D('',#787,#634,#635);
#586=AXIS2_PLACEMENT_3D('',#817,#638,#639);
#587=AXIS2_PLACEMENT_3D('',#818,#640,#641);
#588=AXIS2_PLACEMENT_3D('',#819,#642,#643);
#589=AXIS2_PLACEMENT_3D('',#820,#644,#645);
#590=AXIS2_PLACEMENT_3D('',#823,#646,#647);
#591=AXIS2_PLACEMENT_3D('',#858,#650,#651);
#592=AXIS2_PLACEMENT_3D('',#859,#652,#653);
#593=AXIS2_PLACEMENT_3D('',#860,#654,#655);
#594=AXIS2_PLACEMENT_3D('',#861,#656,#657);
#595=AXIS2_PLACEMENT_3D('',#864,#658,#659);
#596=AXIS2_PLACEMENT_3D('',#899,#662,#663);
#597=AXIS2_PLACEMENT_3D('',#900,#664,#665);
#598=AXIS2_PLACEMENT_3D('',#901,#666,#667);
#599=AXIS2_PLACEMENT_3D('',#902,#668,#669);
#600=AXIS2_PLACEMENT_3D('',#907,#673,#674);
#601=AXIS2_PLACEMENT_3D('',#913,#678,#679);
#602=AXIS2_PLACEMENT_3D('',#926,#681,#682);
#603=AXIS2_PLACEMENT_3D('',#935,#685,#686);
#604=AXIS2_PLACEMENT_3D('',#949,#688,#689);
#605=AXIS2_PLACEMENT_3D('',#953,#692,#693);
#606=AXIS2_PLACEMENT_3D('',#954,#694,#695);
#607=AXIS2_PLACEMENT_3D('',#960,#699,#700);
#608=AXIS2_PLACEMENT_3D('',#968,#702,#703);
#609=AXIS2_PLACEMENT_3D('',#977,#706,#707);
#610=AXIS2_PLACEMENT_3D('',#988,#708,#709);
#611=AXIS2_PLACEMENT_3D('',#1021,#714,#715);
#612=AXIS2_PLACEMENT_3D('',#1025,#718,#719);
#613=AXIS2_PLACEMENT_3D('',#1080,#725,#726);
#614=AXIS2_PLACEMENT_3D('',#1131,#730,#731);
#615=AXIS2_PLACEMENT_3D('',#1231,#737,#738);
#616=DIRECTION('axis',(0.,0.,1.));
#617=DIRECTION('refdir',(1.,0.,0.));
#618=DIRECTION('center_axis',(-0.98469504514783,-0.173879203194519,-0.0119033926992492));
#619=DIRECTION('ref_axis',(-0.134394147303436,0.714051815081457,0.687072207667767));
#620=DIRECTION('',(-0.98469504514783,-0.173879203194519,-0.0119033926992492));
#621=DIRECTION('center_axis',(0.98469504514783,0.173879203194517,0.0119033926992482));
#622=DIRECTION('ref_axis',(-0.173012597507417,0.983458573140685,-0.0536271947786298));
#623=DIRECTION('',(0.98469504514783,0.173879203194519,0.0119033926992492));
#624=DIRECTION('center_axis',(0.99611169010445,0.0872725929581879,0.0120414017294511));
#625=DIRECTION('ref_axis',(0.0872662171050159,-0.996184468117403,0.00105490939221238));
#626=DIRECTION('center_axis',(-0.2674338678518,0.96357079398114,-0.00323284895745973));
#627=DIRECTION('ref_axis',(-0.96357517816343,-0.267427147295552,0.00236578035280208));
#628=DIRECTION('center_axis',(0.0120875220552356,5.48089919711099E-17,-0.999926943236637));
#629=DIRECTION('ref_axis',(-2.30054302223291E-14,1.,-2.2328596578144E-16));
#630=DIRECTION('center_axis',(-0.0120801671811692,0.0348793116073648,0.99931851938342));
#631=DIRECTION('ref_axis',(0.000421604448300214,0.999391531694058,-0.0348767634377508));
#632=DIRECTION('center_axis',(-0.267433867851797,0.963570793981141,-0.00323284895745677));
#633=DIRECTION('ref_axis',(-0.685114211593133,-0.187788401808258,0.703813919455576));
#634=DIRECTION('center_axis',(-0.267433867851795,0.963570793981141,-0.00323284895745651));
#635=DIRECTION('ref_axis',(-0.963575178163431,-0.267427147295547,0.00236578035280215));
#636=DIRECTION('',(-0.267433867851797,0.963570793981141,-0.00323284895745677));
#637=DIRECTION('',(0.267433867851797,-0.963570793981141,0.00323284895745677));
#638=DIRECTION('center_axis',(-0.999926943236637,-2.2939715656024E-15,-0.0120875220552345));
#639=DIRECTION('ref_axis',(-0.000632503129184654,-0.998630006854188,0.0523231244307534));
#640=DIRECTION('center_axis',(0.0120875220552356,5.48089919711099E-17,-0.999926943236637));
#641=DIRECTION('ref_axis',(1.22383901486176E-16,-1.,-5.33335702407103E-17));
#642=DIRECTION('center_axis',(-0.0120801671811686,0.034879311607365,0.99931851938342));
#643=DIRECTION('ref_axis',(-0.000421604448323893,-0.999391531694058,0.0348767634377506));
#644=DIRECTION('center_axis',(-0.999926943236637,-1.22248644426817E-16,
-0.0120875220552356));
#645=DIRECTION('ref_axis',(-0.00876794117679542,-0.688357847609747,0.725318272788985));
#646=DIRECTION('center_axis',(-0.999926943236637,-2.2939715656024E-15,-0.0120875220552345));
#647=DIRECTION('ref_axis',(-0.000632503129184654,-0.998630006854188,0.0523231244307534));
#648=DIRECTION('',(-0.999926943236637,-1.22248644426817E-16,-0.0120875220552356));
#649=DIRECTION('',(0.999926943236637,1.22356916109111E-16,0.0120875220552356));
#650=DIRECTION('center_axis',(0.,-1.,0.));
#651=DIRECTION('ref_axis',(0.999926943236637,0.,0.0120875220552402));
#652=DIRECTION('center_axis',(0.0120875220552356,5.48089919711099E-17,-0.999926943236637));
#653=DIRECTION('ref_axis',(1.22383901486173E-16,-1.,-5.33335702407104E-17));
#654=DIRECTION('center_axis',(-0.0120801671811704,0.0348793116073647,0.99931851938342));
#655=DIRECTION('ref_axis',(-0.00042160444832389,-0.999391531694058,0.0348767634377504));
#656=DIRECTION('center_axis',(-1.22409513777134E-16,1.,5.33332606289593E-17));
#657=DIRECTION('ref_axis',(0.698507953440768,0.,0.715602291066756));
#658=DIRECTION('center_axis',(0.,-1.,0.));
#659=DIRECTION('ref_axis',(0.999926943236637,0.,0.0120875220552379));
#660=DIRECTION('',(1.22409513777134E-16,-1.,-5.33332606289593E-17));
#661=DIRECTION('',(-1.22409513777134E-16,1.,5.33332606289593E-17));
#662=DIRECTION('center_axis',(0.999926943236637,1.41517372258967E-14,0.0120875220552345));
#663=DIRECTION('ref_axis',(0.000632503129172808,0.998630006854188,-0.0523231244307531));
#664=DIRECTION('center_axis',(0.0120875220552356,5.48089919711099E-17,-0.999926943236637));
#665=DIRECTION('ref_axis',(-8.00593000184177E-15,1.,-4.19659293937975E-17));
#666=DIRECTION('center_axis',(-0.0120801671811691,0.0348793116073653,0.99931851938342));
#667=DIRECTION('ref_axis',(0.000421604448323897,0.999391531694058,-0.0348767634377509));
#668=DIRECTION('center_axis',(-0.999926943236637,-1.22248644426817E-16,
-0.0120875220552356));
#669=DIRECTION('ref_axis',(-0.00832054066488677,0.725371266065924,0.688307558413361));
#670=DIRECTION('',(0.999926943236637,1.22248644426817E-16,0.0120875220552356));
#671=DIRECTION('',(-0.999926943236637,-1.22356916109111E-16,-0.0120875220552356));
#672=DIRECTION('',(-0.012070962232872,0.0523269472681572,0.99855705017809));
#673=DIRECTION('center_axis',(-0.000632503129186876,-0.998630006854188,
0.0523231244307531));
#674=DIRECTION('ref_axis',(0.999926943236637,1.22140075470843E-16,0.0120875220552356));
#675=DIRECTION('',(-0.012070962232872,0.0523269472681572,0.99855705017809));
#676=DIRECTION('',(-0.999926943236637,-1.22248347153137E-16,-0.0120875220552356));
#677=DIRECTION('',(-0.012070962232872,0.0523269472681572,0.99855705017809));
#678=DIRECTION('center_axis',(-0.012070962232872,0.0523269472681572,0.99855705017809));
#679=DIRECTION('ref_axis',(-0.00063250312918698,-0.998630006854188,0.0523231244307532));
#680=DIRECTION('',(-0.012070962232872,0.0523269472681572,0.99855705017809));
#681=DIRECTION('center_axis',(-0.963575178163431,-0.267427147295549,0.00236578035280297));
#682=DIRECTION('ref_axis',(0.267433867851797,-0.963570793981141,0.00323284895745677));
#683=DIRECTION('',(-0.012070962232872,0.0523269472681572,0.99855705017809));
#684=DIRECTION('',(-0.267433867851797,0.963570793981141,-0.00323284895745677));
#685=DIRECTION('center_axis',(-0.012070962232872,0.0523269472681572,0.99855705017809));
#686=DIRECTION('ref_axis',(-0.000632503129164066,-0.998630006854188,0.0523231244307534));
#687=DIRECTION('',(-0.012070962232872,0.0523269472681572,0.99855705017809));
#688=DIRECTION('center_axis',(-0.173012597507419,0.983458573140684,-0.0536271947786282));
#689=DIRECTION('ref_axis',(-0.98469504514783,-0.173879203194519,-0.0119033926992492));
#690=DIRECTION('',(-0.012070962232872,0.0523269472681572,0.99855705017809));
#691=DIRECTION('',(0.98469504514783,0.173879203194519,0.0119033926992492));
#692=DIRECTION('center_axis',(-0.0120875220552356,-5.48089919711099E-17,
0.999926943236637));
#693=DIRECTION('ref_axis',(0.999926943236637,-8.56457141705321E-18,0.0120875220552356));
#694=DIRECTION('center_axis',(0.000632503129186876,0.998630006854188,-0.0523231244307531));
#695=DIRECTION('ref_axis',(-0.999926943236637,-1.22140075470843E-16,-0.0120875220552356));
#696=DIRECTION('',(-0.012070962232872,0.0523269472681572,0.99855705017809));
#697=DIRECTION('',(0.999926943236637,1.22248347153137E-16,0.0120875220552356));
#698=DIRECTION('',(0.987212154069818,-0.00896442741932152,-0.159159674220177));
#699=DIRECTION('center_axis',(-0.012070962232872,0.0523269472681572,0.99855705017809));
#700=DIRECTION('ref_axis',(0.000632503129179086,0.998630006854188,-0.0523231244307533));
#701=DIRECTION('',(-0.012070962232872,0.0523269472681572,0.99855705017809));
#702=DIRECTION('center_axis',(0.999926943236637,1.21755903970122E-16,0.0120875220552375));
#703=DIRECTION('ref_axis',(-1.22410765222583E-16,1.,5.34367850748565E-17));
#704=DIRECTION('',(-0.012070962232872,0.0523269472681572,0.99855705017809));
#705=DIRECTION('',(1.22410765222583E-16,-1.,-5.34367850748565E-17));
#706=DIRECTION('center_axis',(-0.012070962232872,0.0523269472681572,0.99855705017809));
#707=DIRECTION('ref_axis',(-0.00063250312918698,-0.998630006854188,0.0523231244307531));
#708=DIRECTION('center_axis',(0.00876794117680587,0.688357847609746,-0.725318272788985));
#709=DIRECTION('ref_axis',(-0.999926943236637,0.,-0.0120875220552354));
#710=DIRECTION('',(0.00832054066487089,-0.725371266065923,-0.688307558413362));
#711=DIRECTION('',(-0.999926943236637,-1.22140075470843E-16,-0.0120875220552356));
#712=DIRECTION('',(-0.0684156938901153,0.724059419434112,0.686336105678748));
#713=DIRECTION('',(-0.698432601563244,-0.0233170041109904,-0.715295895691347));
#714=DIRECTION('center_axis',(-0.110967928843845,0.678156344861069,-0.726491631536649));
#715=DIRECTION('ref_axis',(-0.988534726748891,0.,0.150993688647887));
#716=DIRECTION('',(-0.98469504514783,-0.173879203194519,-0.0119033926992492));
#717=DIRECTION('',(-0.13439414730345,0.714051815081448,0.687072207667773));
#718=DIRECTION('center_axis',(0.715602291066773,1.24923443425609E-16,-0.698507953440751));
#719=DIRECTION('ref_axis',(-0.698507953440751,0.,-0.715602291066773));
#720=DIRECTION('',(-0.698507953440742,0.,-0.715602291066781));
#721=DIRECTION('',(-1.22410765222583E-16,1.,5.34367850748565E-17));
#722=DIRECTION('',(0.698507953440751,0.,0.715602291066773));
#723=DIRECTION('',(0.698198654727038,0.,0.71590407076462));
#724=DIRECTION('',(0.00876794117680837,0.68835784760975,-0.725318272788982));
#725=DIRECTION('center_axis',(0.0083205406648773,-0.725371266065927,-0.688307558413358));
#726=DIRECTION('ref_axis',(-0.999926943236637,0.,-0.0120875220552357));
#727=DIRECTION('',(0.00876794117680854,0.688357847609735,-0.725318272788996));
#728=DIRECTION('',(0.999926943236637,1.22140075470843E-16,0.0120875220552356));
#729=DIRECTION('',(0.68484230844213,0.187711980513481,-0.704098874405691));
#730=DIRECTION('center_axis',(-0.677567445645781,-0.190438549492626,-0.710377023465847));
#731=DIRECTION('ref_axis',(-0.723619905758314,0.,0.690198690226465));
#732=DIRECTION('',(-0.685114211593133,-0.187788401808249,0.703813919455578));
#733=DIRECTION('',(0.685114211593133,0.187788401808253,-0.703813919455578));
#734=DIRECTION('',(0.267433867851797,-0.963570793981141,0.00323284895745677));
#735=DIRECTION('',(-0.691061150613113,-0.166076763505798,0.703457884124359));
#736=DIRECTION('',(0.134392697876244,-0.714042957231666,-0.68708169673293));
#737=DIRECTION('center_axis',(-0.0120875220552356,-5.49125239807207E-17,
0.999926943236637));
#738=DIRECTION('ref_axis',(0.999926943236637,0.,0.0120875220552356));
#739=CARTESIAN_POINT('',(0.,0.,0.));
#740=CARTESIAN_POINT('Origin',(262.81108229269,-94.0510526280855,-45.4017762192726));
#741=CARTESIAN_POINT('',(266.719447980471,-90.3188781241877,-45.5091375563769));
#742=CARTESIAN_POINT('',(211.2504362371,-100.11369491691,-46.1796694460966));
#743=CARTESIAN_POINT('',(262.292044500167,-91.1006769086634,-45.5626578036085));
#744=CARTESIAN_POINT('',(211.733211463456,-103.064070636333,-43.0190070320508));
#745=CARTESIAN_POINT('Origin',(211.769474029622,-103.064070636333,-46.0187878617607));
#746=CARTESIAN_POINT('',(266.94376354801,-93.3148931100553,-42.3515995074134));
#747=CARTESIAN_POINT('',(262.774819726524,-94.0510526280855,-42.4019953895627));
#748=CARTESIAN_POINT('Origin',(266.980026114176,-93.3148931100553,-45.3513803371234));
#749=CARTESIAN_POINT('Ctrl Pts',(211.2504362371,-100.11369491691,-46.1796694460966));
#750=CARTESIAN_POINT('Ctrl Pts',(210.194840901402,-100.299739732104,-46.1859363699325));
#751=CARTESIAN_POINT('Ctrl Pts',(208.559660810667,-101.266453329894,-46.1719617905826));
#752=CARTESIAN_POINT('Ctrl Pts',(207.456846840289,-103.593480545722,-46.104072595164));
#753=CARTESIAN_POINT('Ctrl Pts',(207.503035610893,-105.059660248711,-46.0523400336224));
#754=CARTESIAN_POINT('Ctrl Pts',(207.694093035962,-105.747832357732,-46.0260111159092));
#755=CARTESIAN_POINT('Ctrl Pts',(211.230939147829,-100.066649518499,-45.2540114351205));
#756=CARTESIAN_POINT('Ctrl Pts',(210.162123729676,-100.257194866007,-45.2615750344504));
#757=CARTESIAN_POINT('Ctrl Pts',(208.516545665523,-101.240967439304,-45.2535318057675));
#758=CARTESIAN_POINT('Ctrl Pts',(207.432050489082,-103.595788662071,-45.2003376659653));
#759=CARTESIAN_POINT('Ctrl Pts',(207.497419832323,-105.058881269664,-45.1581418169422));
#760=CARTESIAN_POINT('Ctrl Pts',(207.695351846516,-105.744498366508,-45.1364279544399));
#761=CARTESIAN_POINT('Ctrl Pts',(211.336876282433,-100.779074613148,-43.6107709955441));
#762=CARTESIAN_POINT('Ctrl Pts',(210.440890581375,-100.940434643858,-43.6199569534451));
#763=CARTESIAN_POINT('Ctrl Pts',(209.062068995807,-101.780697711986,-43.6281140033753));
#764=CARTESIAN_POINT('Ctrl Pts',(208.176151043948,-103.755167405517,-43.6186833051643));
#765=CARTESIAN_POINT('Ctrl Pts',(208.24085014428,-104.974135941016,-43.6054974707544));
#766=CARTESIAN_POINT('Ctrl Pts',(208.409997401415,-105.540989701994,-43.5976673680601));
#767=CARTESIAN_POINT('Ctrl Pts',(211.612323242489,-102.379368699649,-43.0204683778492));
#768=CARTESIAN_POINT('Ctrl Pts',(211.097958828265,-102.471124231787,-43.02670499555));
#769=CARTESIAN_POINT('Ctrl Pts',(210.30304889793,-102.949978206781,-43.0361179606456));
#770=CARTESIAN_POINT('Ctrl Pts',(209.780711059679,-104.084867340155,-43.0426214302409));
#771=CARTESIAN_POINT('Ctrl Pts',(209.810463585077,-104.793449799784,-43.0421925797873));
#772=CARTESIAN_POINT('Ctrl Pts',(209.905715548031,-105.123993883295,-43.0410985431687));
#773=CARTESIAN_POINT('Ctrl Pts',(211.733211463456,-103.064070636333,-43.0190070320508));
#774=CARTESIAN_POINT('Ctrl Pts',(211.381372513249,-103.126198984207,-43.0232602038443));
#775=CARTESIAN_POINT('Ctrl Pts',(210.836448422637,-103.449026140853,-43.0298474670521));
#776=CARTESIAN_POINT('Ctrl Pts',(210.469170993294,-104.226120392184,-43.034287265437));
#777=CARTESIAN_POINT('Ctrl Pts',(210.484773424908,-104.715740715858,-43.0340986569216));
#778=CARTESIAN_POINT('Ctrl Pts',(210.548556004287,-104.945550915846,-43.0333276272577));
#779=CARTESIAN_POINT('',(207.694093035962,-105.747832357732,-46.0260111159092));
#780=CARTESIAN_POINT('',(210.548556004287,-104.945550915846,-43.0333276272577));
#781=CARTESIAN_POINT('Origin',(210.584818570453,-104.945550915846,-46.0331084569676));
#782=CARTESIAN_POINT('Origin',(211.993664700695,-104.543308812013,-43.0158585677847));
#783=CARTESIAN_POINT('Origin',(212.029927266861,-104.543308812013,-46.0156393974946));
#784=CARTESIAN_POINT('Origin',(216.414388624711,-125.949634994171,-45.9626382520391));
#785=CARTESIAN_POINT('',(227.121573084173,-175.745520105648,-45.7911638651688));
#786=CARTESIAN_POINT('',(229.976036052498,-174.943238663762,-42.7984803765173));
#787=CARTESIAN_POINT('Origin',(230.012298618664,-174.943238663762,-45.7982612062272));
#788=CARTESIAN_POINT('',(216.378126058546,-125.949634994171,-42.9628574223292));
#789=CARTESIAN_POINT('',(213.523663090221,-126.751916436058,-45.9555409109807));
#790=CARTESIAN_POINT('Ctrl Pts',(227.121573084173,-175.745520105648,-45.7911638651688));
#791=CARTESIAN_POINT('Ctrl Pts',(227.344963842118,-176.550154047384,-45.7603792103369));
#792=CARTESIAN_POINT('Ctrl Pts',(228.402689950146,-178.280205190056,-45.6872088450324));
#793=CARTESIAN_POINT('Ctrl Pts',(230.341568082855,-179.038944389394,-45.6372885523711));
#794=CARTESIAN_POINT('Ctrl Pts',(231.455509805685,-179.038944389394,-45.6238227734619));
#795=CARTESIAN_POINT('Ctrl Pts',(227.122831894727,-175.742186114424,-44.9015807036995));
#796=CARTESIAN_POINT('Ctrl Pts',(227.354260653155,-176.543832650114,-44.8761921264141));
#797=CARTESIAN_POINT('Ctrl Pts',(228.421779236425,-178.25382185793,-44.8149752140772));
#798=CARTESIAN_POINT('Ctrl Pts',(230.340479380214,-178.993541180212,-44.7707439990427));
#799=CARTESIAN_POINT('Ctrl Pts',(231.44503603544,-178.993541180212,-44.7573916706335));
#800=CARTESIAN_POINT('Ctrl Pts',(227.837511662842,-175.538668043254,-43.3628466552315));
#801=CARTESIAN_POINT('Ctrl Pts',(228.035284316599,-176.20145249805,-43.3536914361919));
#802=CARTESIAN_POINT('Ctrl Pts',(228.932329385531,-177.608793527177,-43.328504902961));
#803=CARTESIAN_POINT('Ctrl Pts',(230.517981119238,-178.214385645115,-43.3031924757733));
#804=CARTESIAN_POINT('Ctrl Pts',(231.427324204452,-178.214385645115,-43.2921999680979));
#805=CARTESIAN_POINT('Ctrl Pts',(229.333195596242,-175.121681631211,-42.8062512924283));
#806=CARTESIAN_POINT('Ctrl Pts',(229.444567390311,-175.508164874786,-42.8049721080712));
#807=CARTESIAN_POINT('Ctrl Pts',(229.960631170725,-176.334361649613,-42.7987735612347));
#808=CARTESIAN_POINT('Ctrl Pts',(230.888998143352,-176.693816713362,-42.7874441208354));
#809=CARTESIAN_POINT('Ctrl Pts',(231.421144748906,-176.693816713362,-42.7810113170443));
#810=CARTESIAN_POINT('Ctrl Pts',(229.976036052498,-174.943238663762,-42.7984803765173));
#811=CARTESIAN_POINT('Ctrl Pts',(230.05061278641,-175.211940467632,-42.7975788627397));
#812=CARTESIAN_POINT('Ctrl Pts',(230.4034314362,-175.789678789012,-42.7933138479406));
#813=CARTESIAN_POINT('Ctrl Pts',(231.049830841297,-176.043054368831,-42.785499910014));
#814=CARTESIAN_POINT('Ctrl Pts',(231.421144748906,-176.043054368831,-42.7810113170443));
#815=CARTESIAN_POINT('',(231.455509805685,-179.038944389394,-45.6238227734619));
#816=CARTESIAN_POINT('',(231.421144748906,-176.043054368831,-42.7810113170443));
#817=CARTESIAN_POINT('Origin',(231.457407315072,-176.043054368831,-45.7807921467542));
#818=CARTESIAN_POINT('Origin',(231.421144748906,-174.540996559929,-42.7810113170443));
#819=CARTESIAN_POINT('Origin',(231.457407315072,-174.540996559929,-45.7807921467542));
#820=CARTESIAN_POINT('Origin',(248.461621539643,-176.043054368831,-45.5752383151851));
#821=CARTESIAN_POINT('',(318.84949748423,-179.038944389394,-44.5673688387974));
#822=CARTESIAN_POINT('',(318.815132427452,-176.043054368831,-41.7245573823798));
#823=CARTESIAN_POINT('Origin',(318.851394993617,-176.043054368831,-44.7243382120897));
#824=CARTESIAN_POINT('',(248.425358973477,-176.043054368831,-42.5754574854752));
#825=CARTESIAN_POINT('',(248.459724030255,-179.038944389394,-45.4182689418929));
#826=CARTESIAN_POINT('Ctrl Pts',(318.84949748423,-179.038944389394,-44.5673688387974));
#827=CARTESIAN_POINT('Ctrl Pts',(319.522646728301,-179.038944389394,-44.5592315379784));
#828=CARTESIAN_POINT('Ctrl Pts',(320.866454525138,-178.731019439864,-44.5537345793288));
#829=CARTESIAN_POINT('Ctrl Pts',(322.759432811669,-177.226227350216,-44.5833733956351));
#830=CARTESIAN_POINT('Ctrl Pts',(323.350640438072,-175.550333692591,-44.634720517843));
#831=CARTESIAN_POINT('Ctrl Pts',(323.351066238182,-174.540996559929,-44.6699443628411));
#832=CARTESIAN_POINT('Ctrl Pts',(318.839023713985,-178.993541180212,-43.700937735969));
#833=CARTESIAN_POINT('Ctrl Pts',(319.506501610056,-178.993541180212,-43.6928689927026));
#834=CARTESIAN_POINT('Ctrl Pts',(320.835818715324,-178.694144601397,-43.685378605438));
#835=CARTESIAN_POINT('Ctrl Pts',(322.725366798578,-177.21307252103,-43.7043215630579));
#836=CARTESIAN_POINT('Ctrl Pts',(323.329038164609,-175.55230303722,-43.7440597154002));
#837=CARTESIAN_POINT('Ctrl Pts',(323.340216503757,-174.540996559929,-43.7724120374129));
#838=CARTESIAN_POINT('Ctrl Pts',(318.821312069175,-178.214366470625,-42.2357614348116));
#839=CARTESIAN_POINT('Ctrl Pts',(319.370823410628,-178.214366470625,-42.2291187190569));
#840=CARTESIAN_POINT('Ctrl Pts',(320.46832477815,-177.967615116963,-42.2183432487378));
#841=CARTESIAN_POINT('Ctrl Pts',(322.033329656666,-176.755404713291,-42.2117909048126));
#842=CARTESIAN_POINT('Ctrl Pts',(322.550945630611,-175.381238276317,-42.2195161164123));
#843=CARTESIAN_POINT('Ctrl Pts',(322.567850850616,-174.540996559929,-42.2278870395124));
#844=CARTESIAN_POINT('Ctrl Pts',(318.815132427452,-176.693816713362,-41.7245573823798));
#845=CARTESIAN_POINT('Ctrl Pts',(319.136705879566,-176.693816713362,-41.7206700721907));
#846=CARTESIAN_POINT('Ctrl Pts',(319.779513596405,-176.547341744884,-41.713006349524));
#847=CARTESIAN_POINT('Ctrl Pts',(320.689540545301,-175.832547368601,-41.7019060815533));
#848=CARTESIAN_POINT('Ctrl Pts',(320.983214261286,-175.02841286908,-41.6984364559691));
#849=CARTESIAN_POINT('Ctrl Pts',(320.988172086378,-174.540996559929,-41.6982887984779));
#850=CARTESIAN_POINT('Ctrl Pts',(318.815132427452,-176.043054368831,-41.7245573823798));
#851=CARTESIAN_POINT('Ctrl Pts',(319.039515508809,-176.043054368831,-41.7218449487735));
#852=CARTESIAN_POINT('Ctrl Pts',(319.487408140565,-175.940225013638,-41.7164306411569));
#853=CARTESIAN_POINT('Ctrl Pts',(320.118189298307,-175.437710357015,-41.7088055029328));
#854=CARTESIAN_POINT('Ctrl Pts',(320.315022842307,-174.878057544051,-41.7064260992969));
#855=CARTESIAN_POINT('Ctrl Pts',(320.315022842307,-174.540996559929,-41.7064260992969));
#856=CARTESIAN_POINT('',(323.351066238182,-174.540996559929,-44.6699443628411));
#857=CARTESIAN_POINT('',(320.315022842307,-174.540996559929,-41.7064260992969));
#858=CARTESIAN_POINT('Origin',(320.351285408472,-174.540996559929,-44.7062069290068));
#859=CARTESIAN_POINT('Origin',(318.815132427452,-174.540996559929,-41.7245573823798));
#860=CARTESIAN_POINT('Origin',(318.851394993617,-174.540996559929,-44.7243382120897));
#861=CARTESIAN_POINT('Origin',(320.351285408473,-154.747380716365,-44.7062069290068));
#862=CARTESIAN_POINT('',(323.351066238182,-94.816950918958,-44.6699443628411));
#863=CARTESIAN_POINT('',(320.315022842307,-94.816950918958,-41.7064260992969));
#864=CARTESIAN_POINT('Origin',(320.351285408473,-94.816950918958,-44.7062069290068));
#865=CARTESIAN_POINT('',(320.315022842307,-154.747380716365,-41.7064260992969));
#866=CARTESIAN_POINT('',(323.351066238182,-154.747380716365,-44.6699443628411));
#867=CARTESIAN_POINT('Ctrl Pts',(318.815132427452,-93.3148931100552,-41.7245573823798));
#868=CARTESIAN_POINT('Ctrl Pts',(319.151707049487,-93.3148931100552,-41.7204887319703));
#869=CARTESIAN_POINT('Ctrl Pts',(319.710555273295,-93.5120041686005,-41.7137331481984));
#870=CARTESIAN_POINT('Ctrl Pts',(320.212343967551,-94.1437002249949,-41.70766732314));
#871=CARTESIAN_POINT('Ctrl Pts',(320.315022842307,-94.5922435962096,-41.7064260992969));
#872=CARTESIAN_POINT('Ctrl Pts',(320.315022842307,-94.816950918958,-41.7064260992969));
#873=CARTESIAN_POINT('Ctrl Pts',(318.815132427452,-92.3873804340446,-41.7245573823798));
#874=CARTESIAN_POINT('Ctrl Pts',(319.361065013703,-92.3873804340446,-41.717957928068));
#875=CARTESIAN_POINT('Ctrl Pts',(320.26462567895,-92.7096324405662,-41.7065293716392));
#876=CARTESIAN_POINT('Ctrl Pts',(321.063225300615,-93.7376431126196,-41.6973170654776));
#877=CARTESIAN_POINT('Ctrl Pts',(321.217115624756,-94.4576084046015,-41.6953527286045));
#878=CARTESIAN_POINT('Ctrl Pts',(321.212555167735,-94.816950918958,-41.6955763648715));
#879=CARTESIAN_POINT('Ctrl Pts',(318.824898870618,-90.7842893221581,-42.5324756320717));
#880=CARTESIAN_POINT('Ctrl Pts',(319.729877700396,-90.784289322158,-42.5215358812845));
#881=CARTESIAN_POINT('Ctrl Pts',(321.231056738082,-91.3275608348465,-42.4961192996995));
#882=CARTESIAN_POINT('Ctrl Pts',(322.540677710679,-93.0353436538734,-42.4572234111176));
#883=CARTESIAN_POINT('Ctrl Pts',(322.787271074408,-94.226137598617,-42.4381971882781));
#884=CARTESIAN_POINT('Ctrl Pts',(322.775314543444,-94.8169509189581,-42.4303595175314));
#885=CARTESIAN_POINT('Ctrl Pts',(318.844895525143,-90.2826026593266,-44.186676844062));
#886=CARTESIAN_POINT('Ctrl Pts',(319.863331564905,-90.2826026593265,-44.1743655765481));
#887=CARTESIAN_POINT('Ctrl Pts',(321.552063106387,-90.8826403501261,-44.136215348368));
#888=CARTESIAN_POINT('Ctrl Pts',(323.052199908367,-92.7958673315818,-44.0607750842939));
#889=CARTESIAN_POINT('Ctrl Pts',(323.348483415521,-94.1437472201476,-44.0169239262416));
#890=CARTESIAN_POINT('Ctrl Pts',(323.342928937363,-94.8169509189581,-43.99679511877));
#891=CARTESIAN_POINT('Ctrl Pts',(318.853292503005,-90.3190030894927,-44.8813075853819));
#892=CARTESIAN_POINT('Ctrl Pts',(319.863016369112,-90.3190030894926,-44.8691016341534));
#893=CARTESIAN_POINT('Ctrl Pts',(321.539312035415,-90.90925684184,-44.8282362087085));
#894=CARTESIAN_POINT('Ctrl Pts',(323.043880113478,-92.8008857051902,-44.744024673691));
#895=CARTESIAN_POINT('Ctrl Pts',(323.351350104923,-94.1440594971829,-44.6934269261732));
#896=CARTESIAN_POINT('Ctrl Pts',(323.351066238182,-94.8169509189581,-44.6699443628411));
#897=CARTESIAN_POINT('',(318.853292503005,-90.3190030894927,-44.8813075853819));
#898=CARTESIAN_POINT('',(318.815132427452,-93.3148931100552,-41.7245573823798));
#899=CARTESIAN_POINT('Origin',(318.851394993617,-93.3148931100552,-44.7243382120897));
#900=CARTESIAN_POINT('Origin',(318.815132427452,-94.816950918958,-41.7245573823798));
#901=CARTESIAN_POINT('Origin',(318.851394993617,-94.816950918958,-44.7243382120897));
#902=CARTESIAN_POINT('Origin',(292.158615378916,-93.3148931100553,-45.0470113478529));
#903=CARTESIAN_POINT('',(292.12235281275,-93.3148931100553,-42.0472305181429));
#904=CARTESIAN_POINT('',(266.719476807902,-90.3190030894927,-45.5115222738655));
#905=CARTESIAN_POINT('',(292.160512888303,-90.3190030894927,-45.2039807211451));
#906=CARTESIAN_POINT('',(266.78998851209,-90.6246673899533,-51.3445253085832));
#907=CARTESIAN_POINT('Origin',(231.529816528647,-179.361059884341,-51.7707645547642));
#908=CARTESIAN_POINT('',(231.48344747385,-179.160052620926,-47.9349355890218));
#909=CARTESIAN_POINT('',(231.529816528647,-179.361059884341,-51.7707645547642));
#910=CARTESIAN_POINT('',(318.877435152396,-179.160052620926,-46.8784816543573));
#911=CARTESIAN_POINT('',(248.487661698421,-179.160052620926,-47.7293817574527));
#912=CARTESIAN_POINT('',(318.923804207192,-179.361059884341,-50.7143106200997));
#913=CARTESIAN_POINT('Origin',(231.529816528647,-174.854886457632,-51.7707645547642));
#914=CARTESIAN_POINT('',(227.148077725269,-175.860416244849,-47.9837310953733));
#915=CARTESIAN_POINT('',(227.194490439421,-176.061612769131,-51.8231717331832));
#916=CARTESIAN_POINT('',(227.188617519237,-175.997960901196,-47.9832738841657));
#917=CARTESIAN_POINT('Ctrl Pts',(227.188617519237,-175.997960901196,-47.9832738841657));
#918=CARTESIAN_POINT('Ctrl Pts',(227.174371928234,-175.952315926533,-47.9834235752678));
#919=CARTESIAN_POINT('Ctrl Pts',(227.160859032165,-175.906467607501,-47.9835765897566));
#920=CARTESIAN_POINT('Ctrl Pts',(227.148077725269,-175.860416244849,-47.9837310953733));
#921=CARTESIAN_POINT('Ctrl Pts',(231.48344747385,-179.160052620926,-47.9349355890218));
#922=CARTESIAN_POINT('Ctrl Pts',(230.675619239012,-179.160052620926,-47.9447009440525));
#923=CARTESIAN_POINT('Ctrl Pts',(228.788925591818,-178.642788812788,-47.9664865221212));
#924=CARTESIAN_POINT('Ctrl Pts',(227.517998721447,-177.053346853634,-47.9798127827533));
#925=CARTESIAN_POINT('Ctrl Pts',(227.188617519237,-175.997960901196,-47.9832738841657));
#926=CARTESIAN_POINT('Origin',(207.76701039121,-106.063925021216,-52.0580189839236));
#927=CARTESIAN_POINT('',(207.720597296549,-105.862726849281,-48.2185470761386));
#928=CARTESIAN_POINT('',(207.76701039121,-106.063925021216,-52.0580189839236));
#929=CARTESIAN_POINT('',(207.758941597746,-106.000882584889,-48.2181148292637));
#930=CARTESIAN_POINT('Ctrl Pts',(207.758941597746,-106.000882584889,-48.2181148292637));
#931=CARTESIAN_POINT('Ctrl Pts',(207.746164669478,-105.95484699854,-48.2182692819497));
#932=CARTESIAN_POINT('Ctrl Pts',(207.733387611605,-105.908810847596,-48.2184127003702));
#933=CARTESIAN_POINT('Ctrl Pts',(207.720597296549,-105.862726849283,-48.2185470766141));
#934=CARTESIAN_POINT('',(213.567754703793,-126.930178869022,-48.1478955427358));
#935=CARTESIAN_POINT('Origin',(212.102336480436,-104.857198709716,-52.0056118055046));
#936=CARTESIAN_POINT('',(211.274606294853,-100.218470767679,-48.1791108417036));
#937=CARTESIAN_POINT('',(211.320976768718,-100.419484182676,-52.0150571983029));
#938=CARTESIAN_POINT('',(211.24917362355,-100.223036943179,-48.1794144596837));
#939=CARTESIAN_POINT('Ctrl Pts',(211.24917362355,-100.223036943179,-48.1794144596837));
#940=CARTESIAN_POINT('Ctrl Pts',(211.257646901974,-100.221490563384,-48.1793145789405));
#941=CARTESIAN_POINT('Ctrl Pts',(211.266124459159,-100.219968505318,-48.1792133735703));
#942=CARTESIAN_POINT('Ctrl Pts',(211.274606294853,-100.218470767679,-48.1791108417036));
#943=CARTESIAN_POINT('Ctrl Pts',(207.720597296551,-105.86272684929,-48.2185470766141));
#944=CARTESIAN_POINT('Ctrl Pts',(207.441291303957,-104.856376580486,-48.2214814914695));
#945=CARTESIAN_POINT('Ctrl Pts',(207.581935123086,-102.991375359792,-48.2201589990038));
#946=CARTESIAN_POINT('Ctrl Pts',(209.183176526114,-100.96340481559,-48.2031745494226));
#947=CARTESIAN_POINT('Ctrl Pts',(210.537297551699,-100.352954870852,-48.1878058647118));
#948=CARTESIAN_POINT('Ctrl Pts',(211.24917362355,-100.223036943179,-48.1794144596837));
#949=CARTESIAN_POINT('Origin',(266.78998851209,-90.6246673899533,-51.3445253085832));
#950=CARTESIAN_POINT('',(266.743618038225,-90.4236539749566,-47.5085789519839));
#951=CARTESIAN_POINT('',(266.78998851209,-90.6246673899533,-51.3445253085832));
#952=CARTESIAN_POINT('',(262.302796466934,-91.2078221498145,-47.5622614025363));
#953=CARTESIAN_POINT('Origin',(265.429573198048,-134.639874975099,-42.3699036539061));
#954=CARTESIAN_POINT('Origin',(318.923804207192,-90.6246673899533,-50.7143106200997));
#955=CARTESIAN_POINT('',(318.877435152396,-90.4236601265382,-46.8784816543573));
#956=CARTESIAN_POINT('',(318.923804207192,-90.6246673899533,-50.7143106200997));
#957=CARTESIAN_POINT('',(266.744295484294,-90.4236601265383,-47.5086881707525));
#958=CARTESIAN_POINT('',(292.184655537694,-90.4236601265383,-47.2011547901204));
#959=CARTESIAN_POINT('',(290.519668842001,-90.6395535471711,-51.3417859121809));
#960=CARTESIAN_POINT('Origin',(318.923804207192,-95.1308408166616,-50.7143106200997));
#961=CARTESIAN_POINT('',(323.377059379877,-94.9296297441839,-46.8201983686411));
#962=CARTESIAN_POINT('',(323.423475451757,-95.1308408166617,-50.6599167708511));
#963=CARTESIAN_POINT('Ctrl Pts',(318.877435152395,-90.4236601265382,-46.8784816543573));
#964=CARTESIAN_POINT('Ctrl Pts',(319.898627702875,-90.4236601265382,-46.866137065025));
#965=CARTESIAN_POINT('Ctrl Pts',(322.282323765058,-91.274102643014,-46.8356802325453));
#966=CARTESIAN_POINT('Ctrl Pts',(323.377059836774,-93.6082871846037,-46.8202359859686));
#967=CARTESIAN_POINT('Ctrl Pts',(323.377059379872,-94.9296297441838,-46.8201983682562));
#968=CARTESIAN_POINT('Origin',(323.423475451757,-174.854886457632,-50.6599167708511));
#969=CARTESIAN_POINT('',(323.377059367065,-174.653675322246,-46.8201973088225));
#970=CARTESIAN_POINT('',(323.423475451757,-174.854886457632,-50.6599167708511));
#971=CARTESIAN_POINT('',(323.377059367065,-95.0784420834882,-46.8201973088225));
#972=CARTESIAN_POINT('',(323.377059367065,-154.930525031804,-46.8201973088225));
#973=CARTESIAN_POINT('Ctrl Pts',(323.377059379872,-94.9296297441839,-46.8201983682562));
#974=CARTESIAN_POINT('Ctrl Pts',(323.377059362788,-94.9792697667521,-46.820196955038));
#975=CARTESIAN_POINT('Ctrl Pts',(323.377059367065,-95.0288559172812,-46.8201973088225));
#976=CARTESIAN_POINT('Ctrl Pts',(323.377059367065,-95.0784420834882,-46.8201973088225));
#977=CARTESIAN_POINT('Origin',(318.923804207192,-174.854886457632,-50.7143106200997));
#978=CARTESIAN_POINT('',(323.374605058833,-174.802487724459,-46.8202280382366));
#979=CARTESIAN_POINT('Ctrl Pts',(323.374605058833,-174.802487724459,-46.8202280382366));
#980=CARTESIAN_POINT('Ctrl Pts',(323.33014522003,-176.149998282258,-46.820803917705));
#981=CARTESIAN_POINT('Ctrl Pts',(322.136725048795,-178.397471225092,-46.8374909392445));
#982=CARTESIAN_POINT('Ctrl Pts',(319.85376803315,-179.160052620926,-46.8666793468895));
#983=CARTESIAN_POINT('Ctrl Pts',(318.877435152396,-179.160052620926,-46.8784816543573));
#984=CARTESIAN_POINT('Ctrl Pts',(323.377059367065,-174.653675322246,-46.8201973088225));
#985=CARTESIAN_POINT('Ctrl Pts',(323.377059367065,-174.703279456317,-46.8201973088225));
#986=CARTESIAN_POINT('Ctrl Pts',(323.37624170041,-174.752883590388,-46.8202068391431));
#987=CARTESIAN_POINT('Ctrl Pts',(323.374605058833,-174.802487724459,-46.8202280382366));
#988=CARTESIAN_POINT('Origin',(292.201796304065,-91.9179643916591,-48.6191058013733));
#989=CARTESIAN_POINT('',(318.911716685137,-93.4122686567798,-49.7143836768631));
#990=CARTESIAN_POINT('',(318.877435152396,-90.4236601265382,-46.8784816543573));
#991=CARTESIAN_POINT('',(267.026686294875,-93.4122686567798,-50.3415909477751));
#992=CARTESIAN_POINT('',(292.218937070435,-93.4122686567798,-50.0370568126262));
#993=CARTESIAN_POINT('',(267.026686294875,-93.4122686567798,-50.3415909477751));
#994=CARTESIAN_POINT('Ctrl Pts',(323.377059379872,-94.9296297441838,-46.8201983682562));
#995=CARTESIAN_POINT('Ctrl Pts',(323.377059836774,-93.6082871846037,-46.8202359859686));
#996=CARTESIAN_POINT('Ctrl Pts',(322.282323765058,-91.274102643014,-46.8356802325453));
#997=CARTESIAN_POINT('Ctrl Pts',(319.898627702875,-90.4236601265382,-46.866137065025));
#998=CARTESIAN_POINT('Ctrl Pts',(318.877435152395,-90.4236601265382,-46.8784816543573));
#999=CARTESIAN_POINT('Ctrl Pts',(322.441601849911,-94.9608597684166,-47.7782420368472));
#1000=CARTESIAN_POINT('Ctrl Pts',(322.436227969942,-93.9169946009656,-47.7783320806428));
#1001=CARTESIAN_POINT('Ctrl Pts',(321.563511832406,-92.0834072133463,-47.790355582507));
#1002=CARTESIAN_POINT('Ctrl Pts',(319.69092137693,-91.419862969952,-47.814086713776));
#1003=CARTESIAN_POINT('Ctrl Pts',(318.888862329976,-91.4198629699521,-47.8237823285259));
#1004=CARTESIAN_POINT('Ctrl Pts',(321.50614431995,-94.9920897926494,-48.7362857054382));
#1005=CARTESIAN_POINT('Ctrl Pts',(321.49539610311,-94.2257020173274,-48.736428175317));
#1006=CARTESIAN_POINT('Ctrl Pts',(320.844699899754,-92.8927117836787,-48.7450309324688));
#1007=CARTESIAN_POINT('Ctrl Pts',(319.483215050985,-92.4160658133659,-48.762036362527));
#1008=CARTESIAN_POINT('Ctrl Pts',(318.900289507557,-92.416065813366,-48.7690830026945));
#1009=CARTESIAN_POINT('Ctrl Pts',(320.57068678999,-95.0233198168822,-49.6943293740292));
#1010=CARTESIAN_POINT('Ctrl Pts',(320.554564236277,-94.5344094336893,-49.6945242699913));
#1011=CARTESIAN_POINT('Ctrl Pts',(320.125887967102,-93.702016354011,-49.6997062824305));
#1012=CARTESIAN_POINT('Ctrl Pts',(319.27550872504,-93.4122686567798,-49.709986011278));
#1013=CARTESIAN_POINT('Ctrl Pts',(318.911716685137,-93.4122686567798,-49.7143836768631));
#1014=CARTESIAN_POINT('',(320.57068678999,-95.0233198168822,-49.6943293740292));
#1015=CARTESIAN_POINT('',(323.377059379877,-94.9296297441839,-46.8201983686411));
#1016=CARTESIAN_POINT('Ctrl Pts',(320.57068678999,-95.0233198168822,-49.6943293740292));
#1017=CARTESIAN_POINT('Ctrl Pts',(320.554564236277,-94.5344094336893,-49.6945242699913));
#1018=CARTESIAN_POINT('Ctrl Pts',(320.125887967102,-93.702016354011,-49.6997062824305));
#1019=CARTESIAN_POINT('Ctrl Pts',(319.27550872504,-93.4122686567798,-49.709986011278));
#1020=CARTESIAN_POINT('Ctrl Pts',(318.911716685137,-93.4122686567798,-49.7143836768631));
#1021=CARTESIAN_POINT('Origin',(262.579551126582,-92.6782520086996,-48.9771327998586));
#1022=CARTESIAN_POINT('',(211.828115614151,-103.15933048545,-51.0088536363482));
#1023=CARTESIAN_POINT('',(262.856305786231,-94.1486818675847,-50.3920041971809));
#1024=CARTESIAN_POINT('',(211.828115614151,-103.15933048545,-51.0088536363482));
#1025=CARTESIAN_POINT('Origin',(321.974327388988,-154.930525031804,-48.2572578495369));
#1026=CARTESIAN_POINT('',(320.57159541091,-174.653675322246,-49.6943183902514));
#1027=CARTESIAN_POINT('',(323.377059367065,-174.653675322246,-46.8201973088225));
#1028=CARTESIAN_POINT('',(320.57159541091,-95.0784420834882,-49.6943183902514));
#1029=CARTESIAN_POINT('',(320.57159541091,-154.930525031804,-49.6943183902514));
#1030=CARTESIAN_POINT('',(320.57159541091,-95.0784420834882,-49.6943183902514));
#1031=CARTESIAN_POINT('Ctrl Pts',(320.57068678999,-95.0233198168822,-49.6943293740292));
#1032=CARTESIAN_POINT('Ctrl Pts',(320.571292479956,-95.0416871375145,-49.6943220522035));
#1033=CARTESIAN_POINT('Ctrl Pts',(320.57159541091,-95.0600646102942,-49.6943183902514));
#1034=CARTESIAN_POINT('Ctrl Pts',(320.57159541091,-95.0784420834882,-49.6943183902514));
#1035=CARTESIAN_POINT('Ctrl Pts',(321.50614431995,-94.9920897926494,-48.7362857054382));
#1036=CARTESIAN_POINT('Ctrl Pts',(321.506548107567,-95.0208813472604,-48.7362803531483));
#1037=CARTESIAN_POINT('Ctrl Pts',(321.506750062962,-95.0496617126232,-48.7362780297751));
#1038=CARTESIAN_POINT('Ctrl Pts',(321.506750062962,-95.0784420834882,-48.7362780297751));
#1039=CARTESIAN_POINT('Ctrl Pts',(322.441601849911,-94.9608597684166,-47.7782420368472));
#1040=CARTESIAN_POINT('Ctrl Pts',(322.441803735178,-95.0000755570062,-47.7782386540932));
#1041=CARTESIAN_POINT('Ctrl Pts',(322.441904715013,-95.0392588149522,-47.7782376692988));
#1042=CARTESIAN_POINT('Ctrl Pts',(322.441904715013,-95.0784420834882,-47.7782376692988));
#1043=CARTESIAN_POINT('Ctrl Pts',(323.377059379872,-94.9296297441839,-46.8201983682562));
#1044=CARTESIAN_POINT('Ctrl Pts',(323.377059362788,-94.9792697667521,-46.820196955038));
#1045=CARTESIAN_POINT('Ctrl Pts',(323.377059367065,-95.0288559172812,-46.8201973088225));
#1046=CARTESIAN_POINT('Ctrl Pts',(323.377059367065,-95.0784420834882,-46.8201973088225));
#1047=CARTESIAN_POINT('Ctrl Pts',(320.57159541091,-95.0784420834882,-49.6943183902514));
#1048=CARTESIAN_POINT('Ctrl Pts',(320.57159541091,-95.0600646102942,-49.6943183902514));
#1049=CARTESIAN_POINT('Ctrl Pts',(320.571292479956,-95.0416871375145,-49.6943220522035));
#1050=CARTESIAN_POINT('Ctrl Pts',(320.57068678999,-95.0233198168822,-49.6943293740292));
#1051=CARTESIAN_POINT('Ctrl Pts',(318.877435152396,-179.160052620926,-46.8784816543573));
#1052=CARTESIAN_POINT('Ctrl Pts',(319.85376803315,-179.160052620926,-46.8666793468895));
#1053=CARTESIAN_POINT('Ctrl Pts',(322.136725048795,-178.397471225092,-46.8374909392445));
#1054=CARTESIAN_POINT('Ctrl Pts',(323.33014522003,-176.149998282258,-46.820803917705));
#1055=CARTESIAN_POINT('Ctrl Pts',(323.374605058833,-174.802487724459,-46.8202280382366));
#1056=CARTESIAN_POINT('Ctrl Pts',(318.888862329976,-178.262922131006,-47.8237823285259));
#1057=CARTESIAN_POINT('Ctrl Pts',(319.663618147828,-178.262922131006,-47.8144167662725));
#1058=CARTESIAN_POINT('Ctrl Pts',(321.475167586938,-177.65357774986,-47.7914572904904));
#1059=CARTESIAN_POINT('Ctrl Pts',(322.41062861699,-175.867388777102,-47.7786420752204));
#1060=CARTESIAN_POINT('Ctrl Pts',(322.440268509525,-174.802487724459,-47.7782581555749));
#1061=CARTESIAN_POINT('Ctrl Pts',(318.900289507557,-177.365791641087,-48.7690830026945));
#1062=CARTESIAN_POINT('Ctrl Pts',(319.473468262507,-177.365791641087,-48.7621541856555));
#1063=CARTESIAN_POINT('Ctrl Pts',(320.813610125082,-176.909684274628,-48.7454236417362));
#1064=CARTESIAN_POINT('Ctrl Pts',(321.49111201395,-175.584779271947,-48.7364802327359));
#1065=CARTESIAN_POINT('Ctrl Pts',(321.505931960218,-174.802487724459,-48.7362882729131));
#1066=CARTESIAN_POINT('Ctrl Pts',(318.911716685137,-176.468661151167,-49.7143836768631));
#1067=CARTESIAN_POINT('Ctrl Pts',(319.283318377185,-176.468661151167,-49.7098916050384));
#1068=CARTESIAN_POINT('Ctrl Pts',(320.152052663225,-176.165790799396,-49.699389992982));
#1069=CARTESIAN_POINT('Ctrl Pts',(320.57159541091,-175.302169766792,-49.6943183902514));
#1070=CARTESIAN_POINT('Ctrl Pts',(320.57159541091,-174.802487724459,-49.6943183902514));
#1071=CARTESIAN_POINT('',(320.57159541091,-174.802487724459,-49.6943183902514));
#1072=CARTESIAN_POINT('',(320.57159541091,-174.802487724459,-49.6943183902514));
#1073=CARTESIAN_POINT('',(318.911716685137,-176.468661151167,-49.7143836768631));
#1074=CARTESIAN_POINT('',(318.877435152396,-179.160052620926,-46.8784816543573));
#1075=CARTESIAN_POINT('Ctrl Pts',(318.911716685137,-176.468661151167,-49.7143836768631));
#1076=CARTESIAN_POINT('Ctrl Pts',(319.283318377185,-176.468661151167,-49.7098916050384));
#1077=CARTESIAN_POINT('Ctrl Pts',(320.152052663225,-176.165790799396,-49.699389992982));
#1078=CARTESIAN_POINT('Ctrl Pts',(320.57159541091,-175.302169766792,-49.6943183902514));
#1079=CARTESIAN_POINT('Ctrl Pts',(320.57159541091,-174.802487724459,-49.6943183902514));
#1080=CARTESIAN_POINT('Origin',(248.504802464792,-177.814356886046,-49.1473327687056));
#1081=CARTESIAN_POINT('',(231.517729006592,-176.468661151167,-50.7708376115276));
#1082=CARTESIAN_POINT('',(231.48344747385,-179.160052620926,-47.9349355890218));
#1083=CARTESIAN_POINT('',(248.521943231163,-176.468661151167,-50.5652837799585));
#1084=CARTESIAN_POINT('Ctrl Pts',(227.188617519237,-175.997960901196,-47.9832738841657));
#1085=CARTESIAN_POINT('Ctrl Pts',(227.517998721447,-177.053346853634,-47.9798127827533));
#1086=CARTESIAN_POINT('Ctrl Pts',(228.788925591818,-178.642788812788,-47.9664865221212));
#1087=CARTESIAN_POINT('Ctrl Pts',(230.675619239012,-179.160052620926,-47.9447009440525));
#1088=CARTESIAN_POINT('Ctrl Pts',(231.48344747385,-179.160052620926,-47.9349355890218));
#1089=CARTESIAN_POINT('Ctrl Pts',(228.098659695972,-175.748522720698,-48.9189048526406));
#1090=CARTESIAN_POINT('Ctrl Pts',(228.355081260949,-176.5848275112,-48.9161521862114));
#1091=CARTESIAN_POINT('Ctrl Pts',(229.356657239825,-177.849843426095,-48.905402875512));
#1092=CARTESIAN_POINT('Ctrl Pts',(230.853833427578,-178.262922131006,-48.887985429251));
#1093=CARTESIAN_POINT('Ctrl Pts',(231.494874651431,-178.262922131006,-48.8802362631904));
#1094=CARTESIAN_POINT('Ctrl Pts',(229.008701872706,-175.499084540201,-49.8545358211155));
#1095=CARTESIAN_POINT('Ctrl Pts',(229.192163800451,-176.116308168765,-49.8524915896695));
#1096=CARTESIAN_POINT('Ctrl Pts',(229.924388887832,-177.056898039401,-49.8443192289027));
#1097=CARTESIAN_POINT('Ctrl Pts',(231.032047616144,-177.365791641087,-49.8312699144495));
#1098=CARTESIAN_POINT('Ctrl Pts',(231.506301829011,-177.365791641087,-49.825536937359));
#1099=CARTESIAN_POINT('Ctrl Pts',(229.91874404944,-175.249646359703,-50.7901667895903));
#1100=CARTESIAN_POINT('Ctrl Pts',(230.029246339953,-175.647788826331,-50.7888309931276));
#1101=CARTESIAN_POINT('Ctrl Pts',(230.492120535838,-176.263952652707,-50.7832355822935));
#1102=CARTESIAN_POINT('Ctrl Pts',(231.21026180471,-176.468661151167,-50.7745543996481));
#1103=CARTESIAN_POINT('Ctrl Pts',(231.517729006592,-176.468661151167,-50.7708376115276));
#1104=CARTESIAN_POINT('',(229.91874404944,-175.249646359703,-50.7901667895903));
#1105=CARTESIAN_POINT('',(227.188617519237,-175.997960901196,-47.9832738841657));
#1106=CARTESIAN_POINT('Ctrl Pts',(229.91874404944,-175.249646359703,-50.7901667895903));
#1107=CARTESIAN_POINT('Ctrl Pts',(230.029246339953,-175.647788826331,-50.7888309931276));
#1108=CARTESIAN_POINT('Ctrl Pts',(230.492120535838,-176.263952652707,-50.7832355822935));
#1109=CARTESIAN_POINT('Ctrl Pts',(231.21026180471,-176.468661151167,-50.7745543996481));
#1110=CARTESIAN_POINT('Ctrl Pts',(231.517729006592,-176.468661151167,-50.7708376115276));
#1111=CARTESIAN_POINT('Ctrl Pts',(320.57159541091,-174.653675322246,-49.6943183902514));
#1112=CARTESIAN_POINT('Ctrl Pts',(320.57159541091,-174.703279456317,-49.6943183902514));
#1113=CARTESIAN_POINT('Ctrl Pts',(320.57159541091,-174.752883590388,-49.6943183902514));
#1114=CARTESIAN_POINT('Ctrl Pts',(320.57159541091,-174.802487724459,-49.6943183902514));
#1115=CARTESIAN_POINT('Ctrl Pts',(321.506750062962,-174.653675322246,-48.7362780297751));
#1116=CARTESIAN_POINT('Ctrl Pts',(321.506750062962,-174.703279456317,-48.7362780297751));
#1117=CARTESIAN_POINT('Ctrl Pts',(321.50647750741,-174.752883590388,-48.7362812065486));
#1118=CARTESIAN_POINT('Ctrl Pts',(321.505931960218,-174.802487724459,-48.7362882729131));
#1119=CARTESIAN_POINT('Ctrl Pts',(322.441904715013,-174.653675322246,-47.7782376692988));
#1120=CARTESIAN_POINT('Ctrl Pts',(322.441904715013,-174.703279456317,-47.7782376692988));
#1121=CARTESIAN_POINT('Ctrl Pts',(322.44135960391,-174.752883590388,-47.7782440228459));
#1122=CARTESIAN_POINT('Ctrl Pts',(322.440268509525,-174.802487724459,-47.7782581555749));
#1123=CARTESIAN_POINT('Ctrl Pts',(323.377059367065,-174.653675322246,-46.8201973088225));
#1124=CARTESIAN_POINT('Ctrl Pts',(323.377059367065,-174.703279456317,-46.8201973088225));
#1125=CARTESIAN_POINT('Ctrl Pts',(323.37624170041,-174.752883590388,-46.8202068391431));
#1126=CARTESIAN_POINT('Ctrl Pts',(323.374605058833,-174.802487724459,-46.8202280382366));
#1127=CARTESIAN_POINT('Ctrl Pts',(320.57159541091,-174.802487724459,-49.6943183902514));
#1128=CARTESIAN_POINT('Ctrl Pts',(320.57159541091,-174.752883590388,-49.6943183902514));
#1129=CARTESIAN_POINT('Ctrl Pts',(320.57159541091,-174.703279456317,-49.6943183902514));
#1130=CARTESIAN_POINT('Ctrl Pts',(320.57159541091,-174.653675322246,-49.6943183902514));
#1131=CARTESIAN_POINT('Origin',(214.933915905535,-126.555716882471,-49.5513451482693));
#1132=CARTESIAN_POINT('',(229.880400128752,-175.111492271747,-50.7906303064404));
#1133=CARTESIAN_POINT('',(229.880400128752,-175.111492271747,-50.7906303064404));
#1134=CARTESIAN_POINT('',(210.491264001229,-105.251958611787,-51.0250140403307));
#1135=CARTESIAN_POINT('',(207.758941597746,-106.000882584889,-48.2181148292637));
#1136=CARTESIAN_POINT('',(216.300077107276,-126.18125489592,-50.9547947538029));
#1137=CARTESIAN_POINT('Ctrl Pts',(229.91874404944,-175.249646359703,-50.7901667895903));
#1138=CARTESIAN_POINT('Ctrl Pts',(229.905962742544,-175.203594997051,-50.790321295207));
#1139=CARTESIAN_POINT('Ctrl Pts',(229.893181435648,-175.157543634399,-50.7904758008237));
#1140=CARTESIAN_POINT('Ctrl Pts',(229.880400128752,-175.111492271747,-50.7906303064404));
#1141=CARTESIAN_POINT('Ctrl Pts',(229.008701872706,-175.4990845402,-49.8545358211155));
#1142=CARTESIAN_POINT('Ctrl Pts',(228.995432471107,-175.453168640212,-49.8546887218939));
#1143=CARTESIAN_POINT('Ctrl Pts',(228.982407301154,-175.407184958766,-49.854842730468));
#1144=CARTESIAN_POINT('Ctrl Pts',(228.969625994258,-175.361133596114,-49.8549972360847));
#1145=CARTESIAN_POINT('Ctrl Pts',(228.098659695972,-175.748522720698,-48.9189048526406));
#1146=CARTESIAN_POINT('Ctrl Pts',(228.084902199671,-175.702742283372,-48.9190561485808));
#1147=CARTESIAN_POINT('Ctrl Pts',(228.071633166659,-175.656826283133,-48.9192096601123));
#1148=CARTESIAN_POINT('Ctrl Pts',(228.058851859764,-175.610774920481,-48.919364165729));
#1149=CARTESIAN_POINT('Ctrl Pts',(227.188617519237,-175.997960901196,-47.9832738841657));
#1150=CARTESIAN_POINT('Ctrl Pts',(227.174371928234,-175.952315926533,-47.9834235752678));
#1151=CARTESIAN_POINT('Ctrl Pts',(227.160859032165,-175.906467607501,-47.9835765897566));
#1152=CARTESIAN_POINT('Ctrl Pts',(227.148077725269,-175.860416244849,-47.9837310953733));
#1153=CARTESIAN_POINT('Ctrl Pts',(229.880400128752,-175.111492271747,-50.7906303064404));
#1154=CARTESIAN_POINT('Ctrl Pts',(229.893181435648,-175.157543634399,-50.7904758008237));
#1155=CARTESIAN_POINT('Ctrl Pts',(229.905962742544,-175.203594997051,-50.790321295207));
#1156=CARTESIAN_POINT('Ctrl Pts',(229.91874404944,-175.249646359703,-50.7901667895903));
#1157=CARTESIAN_POINT('Ctrl Pts',(210.477767386742,-105.20011995175,-51.0251771928754));
#1158=CARTESIAN_POINT('Ctrl Pts',(210.385573828149,-104.821214435602,-51.0262916659681));
#1159=CARTESIAN_POINT('Ctrl Pts',(210.463945204663,-104.135418760059,-51.0253442810131));
#1160=CARTESIAN_POINT('Ctrl Pts',(211.062708289812,-103.419519617214,-51.018106190224));
#1161=CARTESIAN_POINT('Ctrl Pts',(211.548630861567,-103.208682400364,-51.0122321612832));
#1162=CARTESIAN_POINT('Ctrl Pts',(211.802670107068,-103.163823698367,-51.0091612319482));
#1163=CARTESIAN_POINT('Ctrl Pts',(209.558710690012,-105.420988917596,-50.0896338207883));
#1164=CARTESIAN_POINT('Ctrl Pts',(209.404146320085,-104.832935150564,-50.0913549411352));
#1165=CARTESIAN_POINT('Ctrl Pts',(209.503275177471,-103.75407095997,-50.0902825203433));
#1166=CARTESIAN_POINT('Ctrl Pts',(210.436197701913,-102.600814683339,-50.0797956432902));
#1167=CARTESIAN_POINT('Ctrl Pts',(211.211519758278,-102.25677322386,-50.0707567290927));
#1168=CARTESIAN_POINT('Ctrl Pts',(211.618171279229,-102.183561446637,-50.06591230786));
#1169=CARTESIAN_POINT('Ctrl Pts',(208.639653993281,-105.641857883443,-49.1540904487012));
#1170=CARTESIAN_POINT('Ctrl Pts',(208.422718812021,-104.844655865525,-49.1564182163024));
#1171=CARTESIAN_POINT('Ctrl Pts',(208.542605150278,-103.372723159881,-49.1552207596735));
#1172=CARTESIAN_POINT('Ctrl Pts',(209.809687114014,-101.782109749465,-49.1414850963564));
#1173=CARTESIAN_POINT('Ctrl Pts',(210.874408654989,-101.304864047356,-49.1292812969022));
#1174=CARTESIAN_POINT('Ctrl Pts',(211.43367245139,-101.203299194908,-49.1226633837719));
#1175=CARTESIAN_POINT('Ctrl Pts',(207.720597296551,-105.86272684929,-48.2185470766141));
#1176=CARTESIAN_POINT('Ctrl Pts',(207.441291303957,-104.856376580486,-48.2214814914695));
#1177=CARTESIAN_POINT('Ctrl Pts',(207.581935123086,-102.991375359792,-48.2201589990038));
#1178=CARTESIAN_POINT('Ctrl Pts',(209.183176526114,-100.96340481559,-48.2031745494226));
#1179=CARTESIAN_POINT('Ctrl Pts',(210.537297551699,-100.352954870852,-48.1878058647118));
#1180=CARTESIAN_POINT('Ctrl Pts',(211.24917362355,-100.223036943179,-48.1794144596837));
#1181=CARTESIAN_POINT('',(210.477767386741,-105.200119951747,-51.0251771928754));
#1182=CARTESIAN_POINT('',(210.477767386741,-105.200119951747,-51.0251771928754));
#1183=CARTESIAN_POINT('',(211.802670107068,-103.163823698367,-51.0091612319482));
#1184=CARTESIAN_POINT('',(211.24917362355,-100.223036943179,-48.1794144596837));
#1185=CARTESIAN_POINT('Ctrl Pts',(211.802670107068,-103.163823698367,-51.0091612319482));
#1186=CARTESIAN_POINT('Ctrl Pts',(211.548630861567,-103.208682400364,-51.0122321612832));
#1187=CARTESIAN_POINT('Ctrl Pts',(211.062708289812,-103.419519617214,-51.018106190224));
#1188=CARTESIAN_POINT('Ctrl Pts',(210.463945204663,-104.135418760059,-51.0253442810131));
#1189=CARTESIAN_POINT('Ctrl Pts',(210.385573828149,-104.821214435602,-51.0262916659681));
#1190=CARTESIAN_POINT('Ctrl Pts',(210.477767386742,-105.20011995175,-51.0251771928754));
#1191=CARTESIAN_POINT('Ctrl Pts',(210.491264001229,-105.251958611787,-51.0250140403307));
#1192=CARTESIAN_POINT('Ctrl Pts',(210.486488898143,-105.234753798092,-51.0250717637117));
#1193=CARTESIAN_POINT('Ctrl Pts',(210.481989224736,-105.217471247531,-51.0251261575871));
#1194=CARTESIAN_POINT('Ctrl Pts',(210.477767386742,-105.200119951747,-51.0251771928754));
#1195=CARTESIAN_POINT('Ctrl Pts',(209.580489866735,-105.501599936154,-50.0893809699751));
#1196=CARTESIAN_POINT('Ctrl Pts',(209.573047488588,-105.474784864908,-50.0894709364577));
#1197=CARTESIAN_POINT('Ctrl Pts',(209.565788687026,-105.447917780886,-50.0895550051815));
#1198=CARTESIAN_POINT('Ctrl Pts',(209.558710690011,-105.420988917592,-50.0896338207883));
#1199=CARTESIAN_POINT('Ctrl Pts',(208.66971573224,-105.751241260522,-49.1537478996194));
#1200=CARTESIAN_POINT('Ctrl Pts',(208.659606079033,-105.714815931724,-49.1538701092037));
#1201=CARTESIAN_POINT('Ctrl Pts',(208.649588149316,-105.678364314241,-49.1539838527758));
#1202=CARTESIAN_POINT('Ctrl Pts',(208.63965399328,-105.641857883437,-49.1540904487012));
#1203=CARTESIAN_POINT('Ctrl Pts',(207.758941597746,-106.000882584889,-48.2181148292637));
#1204=CARTESIAN_POINT('Ctrl Pts',(207.746164669478,-105.95484699854,-48.2182692819497));
#1205=CARTESIAN_POINT('Ctrl Pts',(207.733387611605,-105.908810847596,-48.2184127003702));
#1206=CARTESIAN_POINT('Ctrl Pts',(207.720597296549,-105.862726849283,-48.2185470766141));
#1207=CARTESIAN_POINT('Ctrl Pts',(210.477767386742,-105.200119951747,-51.0251771928754));
#1208=CARTESIAN_POINT('Ctrl Pts',(210.481989224736,-105.217471247531,-51.0251261575871));
#1209=CARTESIAN_POINT('Ctrl Pts',(210.486488898143,-105.234753798092,-51.0250717637117));
#1210=CARTESIAN_POINT('Ctrl Pts',(210.491264001229,-105.251958611787,-51.0250140403307));
#1211=CARTESIAN_POINT('Ctrl Pts',(211.802670107068,-103.163823698367,-51.0091612319482));
#1212=CARTESIAN_POINT('Ctrl Pts',(211.811151942762,-103.162325960728,-51.0090587000815));
#1213=CARTESIAN_POINT('Ctrl Pts',(211.819633778456,-103.160828223089,-51.0089561682148));
#1214=CARTESIAN_POINT('Ctrl Pts',(211.828115614151,-103.15933048545,-51.0088536363482));
#1215=CARTESIAN_POINT('Ctrl Pts',(211.618171279229,-102.183561446637,-50.06591230786));
#1216=CARTESIAN_POINT('Ctrl Pts',(211.626650262499,-102.182047494947,-50.0658106597012));
#1217=CARTESIAN_POINT('Ctrl Pts',(211.635130672024,-102.180541650499,-50.06570857));
#1218=CARTESIAN_POINT('Ctrl Pts',(211.643612507718,-102.17904391286,-50.0656060381333));
#1219=CARTESIAN_POINT('Ctrl Pts',(211.43367245139,-101.203299194908,-49.1226633837719));
#1220=CARTESIAN_POINT('Ctrl Pts',(211.442148582237,-101.201769029166,-49.1225626193208));
#1221=CARTESIAN_POINT('Ctrl Pts',(211.450627565592,-101.200255077909,-49.1224609717851));
#1222=CARTESIAN_POINT('Ctrl Pts',(211.459109401286,-101.198757340269,-49.1223584399185));
#1223=CARTESIAN_POINT('Ctrl Pts',(211.24917362355,-100.223036943179,-48.1794144596837));
#1224=CARTESIAN_POINT('Ctrl Pts',(211.257646901974,-100.221490563384,-48.1793145789405));
#1225=CARTESIAN_POINT('Ctrl Pts',(211.266124459159,-100.219968505318,-48.1792133735703));
#1226=CARTESIAN_POINT('Ctrl Pts',(211.274606294853,-100.218470767679,-48.1791108417036));
#1227=CARTESIAN_POINT('Ctrl Pts',(211.828115614151,-103.15933048545,-51.0088536363482));
#1228=CARTESIAN_POINT('Ctrl Pts',(211.819633778456,-103.160828223089,-51.0089561682148));
#1229=CARTESIAN_POINT('Ctrl Pts',(211.811151942762,-103.162325960728,-51.0090587000815));
#1230=CARTESIAN_POINT('Ctrl Pts',(211.802670107068,-103.163823698367,-51.0091612319482));
#1231=CARTESIAN_POINT('Origin',(265.526157455734,-135.006163605976,-50.3597299483894));
#1232=UNCERTAINTY_MEASURE_WITH_UNIT(LENGTH_MEASURE(0.01),#1236,
'DISTANCE_ACCURACY_VALUE',
'Maximum model space distance between geometric entities at asserted c
onnectivities');
#1233=UNCERTAINTY_MEASURE_WITH_UNIT(LENGTH_MEASURE(0.01),#1236,
'DISTANCE_ACCURACY_VALUE',
'Maximum model space distance between geometric entities at asserted c
onnectivities');
#1234=(
GEOMETRIC_REPRESENTATION_CONTEXT(3)
GLOBAL_UNCERTAINTY_ASSIGNED_CONTEXT((#1232))
GLOBAL_UNIT_ASSIGNED_CONTEXT((#1236,#1238,#1239))
REPRESENTATION_CONTEXT('','3D')
);
#1235=(
GEOMETRIC_REPRESENTATION_CONTEXT(3)
GLOBAL_UNCERTAINTY_ASSIGNED_CONTEXT((#1233))
GLOBAL_UNIT_ASSIGNED_CONTEXT((#1236,#1238,#1239))
REPRESENTATION_CONTEXT('','3D')
);
#1236=(
LENGTH_UNIT()
NAMED_UNIT(*)
SI_UNIT(.MILLI.,.METRE.)
);
#1237=(
LENGTH_UNIT()
NAMED_UNIT(*)
SI_UNIT($,.METRE.)
);
#1238=(
NAMED_UNIT(*)
PLANE_ANGLE_UNIT()
SI_UNIT($,.RADIAN.)
);
#1239=(
NAMED_UNIT(*)
SI_UNIT($,.STERADIAN.)
SOLID_ANGLE_UNIT()
);
#1240=SHAPE_DEFINITION_REPRESENTATION(#1241,#1242);
#1241=PRODUCT_DEFINITION_SHAPE('',$,#1244);
#1242=SHAPE_REPRESENTATION('',(#577),#1234);
#1243=PRODUCT_DEFINITION_CONTEXT('part definition',#1248,'design');
#1244=PRODUCT_DEFINITION('2026-05-27-21-27-40-874','SoftPart',#1245,#1243);
#1245=PRODUCT_DEFINITION_FORMATION('',$,#1250);
#1246=PRODUCT_RELATED_PRODUCT_CATEGORY('SoftPart','SoftPart',(#1250));
#1247=APPLICATION_PROTOCOL_DEFINITION('international standard',
'automotive_design',2009,#1248);
#1248=APPLICATION_CONTEXT(
'Core Data for Automotive Mechanical Design Process');
#1249=PRODUCT_CONTEXT('part definition',#1248,'mechanical');
#1250=PRODUCT('2026-05-27-21-27-40-874','SoftPart',$,(#1249));
#1251=PRESENTATION_STYLE_ASSIGNMENT((#1253));
#1252=PRESENTATION_STYLE_ASSIGNMENT((#1254));
#1253=SURFACE_STYLE_USAGE(.BOTH.,#1255);
#1254=SURFACE_STYLE_USAGE(.BOTH.,#1256);
#1255=SURFACE_SIDE_STYLE('',(#1257));
#1256=SURFACE_SIDE_STYLE('',(#1258));
#1257=SURFACE_STYLE_FILL_AREA(#1259);
#1258=SURFACE_STYLE_FILL_AREA(#1260);
#1259=FILL_AREA_STYLE('Plastic - Glossy (Black)',(#1261));
#1260=FILL_AREA_STYLE('Leather - Matte (Red)',(#1262));
#1261=FILL_AREA_STYLE_COLOUR('Plastic - Glossy (Black)',#1263);
#1262=FILL_AREA_STYLE_COLOUR('Leather - Matte (Red)',#1264);
#1263=COLOUR_RGB('Plastic - Glossy (Black)',0.0980392156862745,0.0980392156862745,
0.0980392156862745);
#1264=COLOUR_RGB('Leather - Matte (Red)',0.,0.,0.);
ENDSEC;
END-ISO-10303-21;
